<svg width="30" height="30" viewBox="0 0 30 30" fill="none" xmlns="http://www.w3.org/2000/svg">
<path d="M10.125 12.2188C10.125 11.8045 9.78921 11.4688 9.375 11.4688C8.96079 11.4688 8.625 11.8045 8.625 12.2188H10.125ZM9.375 18.125H8.62498L8.62502 18.1298L9.375 18.125ZM12.5 21.25L12.4952 22H12.5V21.25ZM17.5 21.25V22L17.5048 22L17.5 21.25ZM20.625 18.125L21.375 18.1298V18.125H20.625ZM21.375 12.2188C21.375 11.8045 21.0392 11.4688 20.625 11.4688C20.2108 11.4688 19.875 11.8045 19.875 12.2188H21.375ZM9.09814 12.9158C9.4831 13.0687 9.91912 12.8806 10.072 12.4956C10.2249 12.1107 10.0368 11.6746 9.65186 11.5217L9.09814 12.9158ZM6.25 10.9775L5.973 10.2805C5.68742 10.394 5.49997 10.6703 5.5 10.9776C5.50003 11.2849 5.68753 11.5611 5.97314 11.6745L6.25 10.9775ZM15 7.5L15.277 6.80303C15.0991 6.73232 14.9009 6.73232 14.723 6.80303L15 7.5ZM23.75 10.9775L24.0271 11.6744C24.3126 11.5609 24.5 11.2847 24.5 10.9774C24.5 10.6702 24.3125 10.394 24.027 10.2805L23.75 10.9775ZM20.3479 11.5231C19.963 11.6761 19.775 12.1122 19.9281 12.4971C20.0811 12.882 20.5172 13.07 20.9021 12.9169L20.3479 11.5231ZM9.65194 11.523C9.267 11.3701 8.83095 11.5581 8.678 11.9431C8.52505 12.328 8.71312 12.764 9.09806 12.917L9.65194 11.523ZM15 14.455L14.7231 15.152C14.9009 15.2227 15.0991 15.2227 15.2769 15.152L15 14.455ZM20.9019 12.917C21.2869 12.764 21.4749 12.328 21.322 11.9431C21.169 11.5581 20.733 11.3701 20.3481 11.523L20.9019 12.917ZM8.625 12.2188V18.125H10.125V12.2188H8.625ZM8.62502 18.1298C8.63853 20.2616 10.3634 21.9865 12.4952 22L12.5048 20.5C11.1939 20.4917 10.1333 19.4311 10.125 18.1202L8.62502 18.1298ZM12.5 22H17.5V20.5H12.5V22ZM17.5048 22C19.6366 21.9865 21.3615 20.2616 21.375 18.1298L19.875 18.1202C19.8667 19.4311 18.8061 20.4917 17.4952 20.5L17.5048 22ZM21.375 18.125V12.2188H19.875V18.125H21.375ZM9.65186 11.5217L6.52686 10.2805L5.97314 11.6745L9.09814 12.9158L9.65186 11.5217ZM6.527 11.6745L15.277 8.19697L14.723 6.80303L5.973 10.2805L6.527 11.6745ZM14.723 8.19697L23.473 11.6745L24.027 10.2805L15.277 6.80303L14.723 8.19697ZM23.4729 10.2806L20.3479 11.5231L20.9021 12.9169L24.0271 11.6744L23.4729 10.2806ZM9.09806 12.917L14.7231 15.152L15.2769 13.758L9.65194 11.523L9.09806 12.917ZM15.2769 15.152L20.9019 12.917L20.3481 11.523L14.7231 13.758L15.2769 15.152Z" fill="white"/>
</svg>
