<svg width="81" height="30" viewBox="0 0 81 30" fill="none" xmlns="http://www.w3.org/2000/svg">
<rect width="81" height="30" rx="15" fill="#CD104D"/>
<path d="M26.0236 20.135C25.5836 20.135 25.2436 20.015 25.0036 19.775C24.7636 19.525 24.6436 19.175 24.6436 18.725V10.7C24.6436 10.24 24.7636 9.89 25.0036 9.65C25.2436 9.41 25.5836 9.29 26.0236 9.29C26.4736 9.29 26.8136 9.41 27.0436 9.65C27.2836 9.89 27.4036 10.24 27.4036 10.7V13.505H31.7686V10.7C31.7686 10.24 31.8836 9.89 32.1136 9.65C32.3536 9.41 32.6986 9.29 33.1486 9.29C33.5886 9.29 33.9236 9.41 34.1536 9.65C34.3936 9.89 34.5136 10.24 34.5136 10.7V18.725C34.5136 19.175 34.3936 19.525 34.1536 19.775C33.9236 20.015 33.5886 20.135 33.1486 20.135C32.6986 20.135 32.3536 20.015 32.1136 19.775C31.8836 19.525 31.7686 19.175 31.7686 18.725V15.77H27.4036V18.725C27.4036 19.175 27.2886 19.525 27.0586 19.775C26.8286 20.015 26.4836 20.135 26.0236 20.135ZM37.5756 20.135C37.1556 20.135 36.8306 20.01 36.6006 19.76C36.3706 19.51 36.2556 19.15 36.2556 18.68V13.94C36.2556 13.47 36.3706 13.11 36.6006 12.86C36.8306 12.61 37.1556 12.485 37.5756 12.485C38.0056 12.485 38.3356 12.61 38.5656 12.86C38.8056 13.11 38.9256 13.47 38.9256 13.94V18.68C38.9256 19.15 38.8106 19.51 38.5806 19.76C38.3506 20.01 38.0156 20.135 37.5756 20.135ZM37.5756 11.42C37.1056 11.42 36.7406 11.31 36.4806 11.09C36.2306 10.87 36.1056 10.55 36.1056 10.13C36.1056 9.72 36.2306 9.405 36.4806 9.185C36.7406 8.965 37.1056 8.855 37.5756 8.855C38.0656 8.855 38.4356 8.965 38.6856 9.185C38.9356 9.405 39.0606 9.72 39.0606 10.13C39.0606 10.55 38.9356 10.87 38.6856 11.09C38.4356 11.31 38.0656 11.42 37.5756 11.42ZM43.3543 20.165C42.7243 20.165 42.1643 20.01 41.6743 19.7C41.1943 19.39 40.8143 18.945 40.5343 18.365C40.2643 17.785 40.1293 17.1 40.1293 16.31C40.1293 15.5 40.2643 14.81 40.5343 14.24C40.8143 13.67 41.1943 13.23 41.6743 12.92C42.1643 12.61 42.7243 12.455 43.3543 12.455C43.9043 12.455 44.3993 12.585 44.8393 12.845C45.2793 13.105 45.5743 13.44 45.7243 13.85H45.5593V10.64C45.5593 10.2 45.6743 9.865 45.9043 9.635C46.1343 9.405 46.4643 9.29 46.8943 9.29C47.3143 9.29 47.6393 9.405 47.8693 9.635C48.1093 9.865 48.2293 10.2 48.2293 10.64V18.785C48.2293 19.225 48.1143 19.56 47.8843 19.79C47.6643 20.02 47.3393 20.135 46.9093 20.135C46.4893 20.135 46.1643 20.02 45.9343 19.79C45.7043 19.56 45.5893 19.225 45.5893 18.785V17.93L45.7543 18.665C45.6143 19.115 45.3193 19.48 44.8693 19.76C44.4293 20.03 43.9243 20.165 43.3543 20.165ZM44.2093 18.2C44.4793 18.2 44.7193 18.135 44.9293 18.005C45.1393 17.865 45.2993 17.66 45.4093 17.39C45.5293 17.11 45.5893 16.75 45.5893 16.31C45.5893 15.64 45.4593 15.16 45.1993 14.87C44.9393 14.57 44.6093 14.42 44.2093 14.42C43.9393 14.42 43.6993 14.485 43.4893 14.615C43.2793 14.745 43.1143 14.95 42.9943 15.23C42.8743 15.5 42.8143 15.86 42.8143 16.31C42.8143 16.97 42.9443 17.45 43.2043 17.75C43.4643 18.05 43.7993 18.2 44.2093 18.2ZM53.7961 20.165C52.8961 20.165 52.1161 20.01 51.4561 19.7C50.8061 19.38 50.3061 18.93 49.9561 18.35C49.6061 17.77 49.4311 17.085 49.4311 16.295C49.4311 15.535 49.5961 14.87 49.9261 14.3C50.2661 13.72 50.7261 13.27 51.3061 12.95C51.8961 12.62 52.5661 12.455 53.3161 12.455C53.8661 12.455 54.3661 12.545 54.8161 12.725C55.2661 12.895 55.6511 13.15 55.9711 13.49C56.2911 13.82 56.5311 14.22 56.6911 14.69C56.8611 15.16 56.9461 15.685 56.9461 16.265C56.9461 16.465 56.8911 16.615 56.7811 16.715C56.6711 16.805 56.4961 16.85 56.2561 16.85H51.6661V15.59H54.9961L54.7561 15.785C54.7561 15.415 54.7061 15.115 54.6061 14.885C54.5061 14.655 54.3561 14.48 54.1561 14.36C53.9661 14.24 53.7261 14.18 53.4361 14.18C53.1261 14.18 52.8561 14.255 52.6261 14.405C52.4061 14.545 52.2361 14.755 52.1161 15.035C51.9961 15.315 51.9361 15.665 51.9361 16.085V16.22C51.9361 16.93 52.0911 17.44 52.4011 17.75C52.7211 18.05 53.2111 18.2 53.8711 18.2C54.0911 18.2 54.3411 18.175 54.6211 18.125C54.9111 18.065 55.1861 17.985 55.4461 17.885C55.7061 17.785 55.9311 17.77 56.1211 17.84C56.3111 17.9 56.4561 18.01 56.5561 18.17C56.6661 18.32 56.7261 18.495 56.7361 18.695C56.7461 18.885 56.7011 19.075 56.6011 19.265C56.5011 19.445 56.3361 19.585 56.1061 19.685C55.7561 19.845 55.3811 19.965 54.9811 20.045C54.5911 20.125 54.1961 20.165 53.7961 20.165Z" fill="white"/>
</svg>
