<svg width="16" height="15" viewBox="0 0 16 15" fill="none" xmlns="http://www.w3.org/2000/svg">
<path fill-rule="evenodd" clip-rule="evenodd" d="M8.51093 4.28053V5.97227C8.86639 5.43149 9.35631 4.9924 9.93264 4.69806C10.509 4.40373 11.1519 4.26426 11.7984 4.29333C15.2533 4.29333 16 6.44587 16 9.24587V14.9472H12.8V9.89333C12.8 8.688 12.5557 7.13707 10.672 7.13707C8.8448 7.13707 8.53333 8.44907 8.53333 9.80373V14.9472H5.34293V4.28053H8.51093ZM3.2 1.6C3.2 2.02435 3.03143 2.43131 2.73137 2.73137C2.43131 3.03143 2.02435 3.2 1.6 3.2C1.17565 3.2 0.768687 3.03143 0.468629 2.73137C0.168571 2.43131 0 2.02435 0 1.6C0 1.17565 0.168571 0.768687 0.468629 0.468629C0.768687 0.168571 1.17565 0 1.6 0C2.02435 0 2.43131 0.168571 2.73137 0.468629C3.03143 0.768687 3.2 1.17565 3.2 1.6Z" fill="black"/>
<path d="M3.2 4.29333H0V14.9472H3.2V4.29333Z" fill="black"/>
</svg>
