<svg width="30" height="30" viewBox="0 0 30 30" fill="none" xmlns="http://www.w3.org/2000/svg">
<path d="M10.375 13.75C10.375 13.1977 9.92728 12.75 9.375 12.75C8.82272 12.75 8.375 13.1977 8.375 13.75H10.375ZM8.375 21.25C8.375 21.8023 8.82272 22.25 9.375 22.25C9.92728 22.25 10.375 21.8023 10.375 21.25H8.375ZM20.875 21.25C20.875 21.8023 21.3227 22.25 21.875 22.25C22.4273 22.25 22.875 21.8023 22.875 21.25H20.875ZM14.375 17.5H13.375H14.375ZM13.375 21.25C13.375 21.8023 13.8227 22.25 14.375 22.25C14.9273 22.25 15.375 21.8023 15.375 21.25H13.375ZM10.375 10C10.375 9.44772 9.92728 9 9.375 9C8.82272 9 8.375 9.44772 8.375 10H10.375ZM8.375 11.25C8.375 11.8023 8.82272 12.25 9.375 12.25C9.92728 12.25 10.375 11.8023 10.375 11.25H8.375ZM8.375 13.75V21.25H10.375V13.75H8.375ZM22.875 21.25V17.5H20.875V21.25H22.875ZM22.875 17.5C22.875 14.8766 20.7484 12.75 18.125 12.75V14.75C19.6438 14.75 20.875 15.9812 20.875 17.5H22.875ZM18.125 12.75C15.5016 12.75 13.375 14.8766 13.375 17.5L15.375 17.5C15.375 15.9812 16.6062 14.75 18.125 14.75V12.75ZM13.375 17.5V21.25H15.375V17.5H13.375ZM8.375 10V11.25H10.375V10H8.375Z" fill="black"/>
</svg>
