<svg width="30" height="30" viewBox="0 0 30 30" fill="none" xmlns="http://www.w3.org/2000/svg">
<path d="M11.2038 19.4097C11.6158 19.3663 11.9145 18.9971 11.8711 18.5852C11.8277 18.1733 11.4586 17.8745 11.0467 17.9179L11.2038 19.4097ZM7.05777 19.9425L6.69542 19.2859C6.67761 19.2957 6.6602 19.3063 6.64325 19.3175L7.05777 19.9425ZM6.51277 21.72L5.93252 22.1952C5.95776 22.226 5.9854 22.2548 6.0152 22.2812L6.51277 21.72ZM9.73152 23.2088L9.89792 22.4775C9.87777 22.4729 9.85743 22.4691 9.83696 22.4662L9.73152 23.2088ZM15.0003 23.75L15.0147 23.0002C15.0051 23 14.9956 23 14.986 23.0002L15.0003 23.75ZM20.269 23.21L20.1636 22.4675C20.1432 22.4704 20.1229 22.4741 20.1028 22.4787L20.269 23.21ZM23.4878 21.7213L23.9853 22.2825C24.0151 22.256 24.0428 22.2273 24.068 22.1965L23.4878 21.7213ZM22.9428 19.9438L23.3573 19.3187C23.3404 19.3075 23.3231 19.297 23.3053 19.2872L22.9428 19.9438ZM18.954 17.9179C18.5421 17.8744 18.1729 18.1731 18.1294 18.585C18.0859 18.9969 18.3846 19.3661 18.7965 19.4096L18.954 17.9179ZM15.0003 18.2838L14.484 18.8278C14.7734 19.1025 15.2272 19.1025 15.5166 18.8278L15.0003 18.2838ZM11.2878 14.76L11.8041 14.216L11.7979 14.2103L11.2878 14.76ZM11.2878 7.71003L11.7979 8.25981L11.7987 8.25911L11.2878 7.71003ZM18.7128 7.71003L18.2019 8.25911L18.2026 8.25981L18.7128 7.71003ZM18.7128 14.76L18.2026 14.2102L18.1965 14.2161L18.7128 14.76ZM15.0003 13.125L14.9872 13.8749L14.9937 13.875L15.0003 13.125ZM13.3104 11.3845L14.0603 11.3936L13.3104 11.3845ZM15.0418 9.68533L15.0468 8.93535L15.0418 9.68533ZM16.7503 11.4075L17.5003 11.4151L17.5003 11.4085L16.7503 11.4075ZM11.0467 17.9179C9.51948 18.0788 8.03996 18.5439 6.69542 19.2859L7.42013 20.5992C8.58929 19.954 9.87583 19.5496 11.2038 19.4097L11.0467 17.9179ZM6.64325 19.3175C6.15659 19.6402 5.73627 20.0595 5.57135 20.5973C5.39052 21.187 5.5659 21.7475 5.93252 22.1952L7.09302 21.2448C7.02729 21.1646 7.00846 21.1125 7.00304 21.0905C6.99884 21.0735 6.99842 21.06 7.00544 21.0371C7.0249 20.9737 7.12021 20.8011 7.47229 20.5676L6.64325 19.3175ZM6.0152 22.2812C7.02895 23.1801 8.28469 23.7609 9.62608 23.9513L9.83696 22.4662C8.78691 22.3171 7.80391 21.8625 7.01034 21.1589L6.0152 22.2812ZM9.56512 23.9401C11.3522 24.3467 13.1821 24.5347 15.0145 24.4999L14.986 23.0002C13.2751 23.0327 11.5665 22.8571 9.89792 22.4775L9.56512 23.9401ZM14.9859 24.4999C16.8182 24.5351 18.6481 24.3476 20.4352 23.9414L20.1028 22.4787C18.4341 22.858 16.7256 23.0331 15.0147 23.0002L14.9859 24.4999ZM20.3745 23.9526C21.7159 23.7621 22.9716 23.1813 23.9853 22.2825L22.9902 21.1601C22.1966 21.8637 21.2136 22.3184 20.1636 22.4675L20.3745 23.9526ZM24.068 22.1965C24.4346 21.7488 24.61 21.1883 24.4292 20.5986C24.2643 20.0608 23.844 19.6415 23.3573 19.3187L22.5283 20.5688C22.8803 20.8023 22.9756 20.9749 22.9951 21.0384C23.0021 21.0612 23.0017 21.0747 22.9975 21.0918C22.9921 21.1138 22.9733 21.1658 22.9075 21.2461L24.068 22.1965ZM23.3053 19.2872C21.9609 18.5448 20.4814 18.0792 18.954 17.9179L18.7965 19.4096C20.1246 19.5499 21.4111 19.9548 22.5802 20.6003L23.3053 19.2872ZM15.5166 17.7398L11.8041 14.2161L10.7715 15.304L14.484 18.8278L15.5166 17.7398ZM11.7979 14.2103C10.9702 13.4422 10.4999 12.3642 10.4999 11.235H8.99987C8.99987 12.7814 9.64405 14.258 10.7776 15.3098L11.7979 14.2103ZM10.4999 11.235C10.4999 10.1059 10.9702 9.02782 11.7979 8.25981L10.7776 7.16025C9.64405 8.2121 8.99987 9.68862 8.99987 11.235H10.4999ZM11.7987 8.25911C13.603 6.5803 16.3976 6.5803 18.2019 8.25911L19.2237 7.16095C16.8435 4.94635 13.157 4.94635 10.7769 7.16095L11.7987 8.25911ZM18.2026 8.25981C19.0303 9.02782 19.5007 10.1059 19.5007 11.235H21.0007C21.0007 9.68862 20.3565 8.2121 19.2229 7.16025L18.2026 8.25981ZM19.5007 11.235C19.5007 12.3642 19.0303 13.4422 18.2026 14.2103L19.2229 15.3098C20.3565 14.258 21.0007 12.7814 21.0007 11.235H19.5007ZM18.1965 14.2161L14.484 17.7398L15.5166 18.8278L19.2291 15.304L18.1965 14.2161ZM15.0134 12.3751C14.4798 12.3658 14.0539 11.9272 14.0603 11.3936L12.5605 11.3755C12.5441 12.7344 13.6284 13.8512 14.9872 13.8749L15.0134 12.3751ZM14.0603 11.3936C14.0668 10.86 14.5031 10.4317 15.0368 10.4353L15.0468 8.93535C13.6879 8.92627 12.5768 10.0166 12.5605 11.3755L14.0603 11.3936ZM15.0368 10.4353C15.5704 10.4389 16.001 10.8729 16.0003 11.4066L17.5003 11.4085C17.502 10.0496 16.4057 8.94443 15.0468 8.93535L15.0368 10.4353ZM16.0003 11.4C15.9948 11.9434 15.5503 12.3798 15.0068 12.3751L14.9937 13.875C16.3648 13.8869 17.4865 12.7861 17.5002 11.4151L16.0003 11.4Z" fill="#61677A"/>
</svg>
