<svg width="40" height="40" viewBox="0 0 40 40" fill="none" xmlns="http://www.w3.org/2000/svg">
<g filter="url(#filter0_d_451_1766)">
<rect x="10" y="10" width="20" height="20" rx="10" fill="#61677A" fill-opacity="0.5"/>
<path fill-rule="evenodd" clip-rule="evenodd" d="M16.1646 16.4762C16.7146 15.8968 16.909 15.7343 17.1434 15.6587C17.3056 15.6162 17.4757 15.6139 17.639 15.6518C17.854 15.7143 17.9109 15.7618 18.6159 16.4643C19.2353 17.0812 19.2971 17.1481 19.3565 17.2687C19.4701 17.4805 19.4878 17.7306 19.4053 17.9562C19.3428 18.1281 19.254 18.2418 18.8784 18.6187L18.6334 18.8643C18.5691 18.9297 18.5539 19.029 18.5959 19.1106C19.1402 20.0393 19.9125 20.8137 20.8396 21.3606C20.9464 21.4177 21.0778 21.3993 21.1646 21.315L21.4003 21.0831C21.5459 20.9338 21.7001 20.7932 21.8621 20.6618C22.1166 20.5056 22.4337 20.4917 22.7009 20.625C22.8315 20.6875 22.8746 20.7262 23.5134 21.3637C24.1721 22.0206 24.1909 22.0412 24.2634 22.1918C24.3998 22.4412 24.3984 22.7432 24.2596 22.9912C24.189 23.1312 24.1459 23.1818 23.7753 23.5606C23.5515 23.7893 23.3409 23.9981 23.3071 24.0287C23.0014 24.2819 22.6091 24.4061 22.2134 24.375C21.4894 24.309 20.7886 24.0852 20.1603 23.7193C18.7685 22.982 17.5836 21.9076 16.714 20.5943C16.5246 20.3195 16.3562 20.0308 16.2103 19.7306C15.8188 19.0596 15.6166 18.2949 15.6253 17.5181C15.6552 17.1117 15.8501 16.7352 16.1646 16.4762Z" fill="white" stroke="white" stroke-width="1.5" stroke-linecap="round" stroke-linejoin="round"/>
</g>
<defs>
<filter id="filter0_d_451_1766" x="0" y="0" width="40" height="40" filterUnits="userSpaceOnUse" color-interpolation-filters="sRGB">
<feFlood flood-opacity="0" result="BackgroundImageFix"/>
<feColorMatrix in="SourceAlpha" type="matrix" values="0 0 0 0 0 0 0 0 0 0 0 0 0 0 0 0 0 0 127 0" result="hardAlpha"/>
<feOffset/>
<feGaussianBlur stdDeviation="5"/>
<feComposite in2="hardAlpha" operator="out"/>
<feColorMatrix type="matrix" values="0 0 0 0 0 0 0 0 0 0 0 0 0 0 0 0 0 0 0.1 0"/>
<feBlend mode="normal" in2="BackgroundImageFix" result="effect1_dropShadow_451_1766"/>
<feBlend mode="normal" in="SourceGraphic" in2="effect1_dropShadow_451_1766" result="shape"/>
</filter>
</defs>
</svg>
