<svg width="40" height="40" viewBox="0 0 40 40" fill="none" xmlns="http://www.w3.org/2000/svg">
<path d="M15.375 17.2188C15.375 16.6665 14.9273 16.2188 14.375 16.2188C13.8227 16.2188 13.375 16.6665 13.375 17.2188H15.375ZM14.375 23.125H13.375L13.375 23.1313L14.375 23.125ZM17.5 26.25L17.4937 27.25H17.5V26.25ZM22.5 26.25V27.25L22.5063 27.25L22.5 26.25ZM25.625 23.125L26.625 23.1313V23.125H25.625ZM26.625 17.2188C26.625 16.6665 26.1773 16.2188 25.625 16.2188C25.0727 16.2188 24.625 16.6665 24.625 17.2188H26.625ZM14.0059 18.1481C14.5191 18.352 15.1005 18.1012 15.3044 17.5879C15.5082 17.0746 15.2574 16.4933 14.7441 16.2894L14.0059 18.1481ZM11.25 15.9775L10.8807 15.0482C10.4999 15.1995 10.25 15.5678 10.25 15.9776C10.25 16.3873 10.5 16.7556 10.8809 16.9069L11.25 15.9775ZM20 12.5L20.3693 11.5707C20.1321 11.4764 19.8679 11.4764 19.6307 11.5707L20 12.5ZM28.75 15.9775L29.1195 16.9067C29.5002 16.7554 29.75 16.3871 29.75 15.9774C29.75 15.5677 29.5001 15.1995 29.1193 15.0482L28.75 15.9775ZM25.2555 16.2908C24.7423 16.4948 24.4917 17.0763 24.6958 17.5895C24.8998 18.1027 25.4813 18.3533 25.9945 18.1492L25.2555 16.2908ZM14.7443 16.2907C14.231 16.0867 13.6496 16.3375 13.4457 16.8507C13.2417 17.364 13.4925 17.9454 14.0057 18.1493L14.7443 16.2907ZM20 19.455L19.6307 20.3843C19.8679 20.4786 20.1321 20.4786 20.3693 20.3843L20 19.455ZM25.9943 18.1493C26.5075 17.9454 26.7583 17.364 26.5543 16.8507C26.3504 16.3375 25.769 16.0867 25.2557 16.2907L25.9943 18.1493ZM13.375 17.2188V23.125H15.375V17.2188H13.375ZM13.375 23.1313C13.3894 25.4 15.225 27.2356 17.4937 27.25L17.5063 25.25C16.3323 25.2426 15.3824 24.2927 15.375 23.1187L13.375 23.1313ZM17.5 27.25H22.5V25.25H17.5V27.25ZM22.5063 27.25C24.775 27.2356 26.6106 25.4 26.625 23.1313L24.625 23.1187C24.6176 24.2927 23.6677 25.2426 22.4937 25.25L22.5063 27.25ZM26.625 23.125V17.2188H24.625V23.125H26.625ZM14.7441 16.2894L11.6191 15.0481L10.8809 16.9069L14.0059 18.1481L14.7441 16.2894ZM11.6193 16.9068L20.3693 13.4293L19.6307 11.5707L10.8807 15.0482L11.6193 16.9068ZM19.6307 13.4293L28.3807 16.9068L29.1193 15.0482L20.3693 11.5707L19.6307 13.4293ZM28.3805 15.0483L25.2555 16.2908L25.9945 18.1492L29.1195 16.9067L28.3805 15.0483ZM14.0057 18.1493L19.6307 20.3843L20.3693 18.5257L14.7443 16.2907L14.0057 18.1493ZM20.3693 20.3843L25.9943 18.1493L25.2557 16.2907L19.6307 18.5257L20.3693 20.3843Z" fill="#F2CD5C"/>
<circle cx="20" cy="20" r="18.5" stroke="#F2CD5C" stroke-width="3"/>
</svg>
