<svg width="75" height="25" viewBox="0 0 75 25" fill="none" xmlns="http://www.w3.org/2000/svg">
<rect width="75" height="25" rx="12.5" fill="url(#paint0_linear_496_2102)"/>
<path d="M13.1537 17.2926C12.7431 17.2926 12.4257 17.1806 12.2017 16.9566C11.9777 16.7233 11.8657 16.3966 11.8657 15.9766V8.48663C11.8657 8.05729 11.9777 7.73063 12.2017 7.50663C12.4257 7.28263 12.7431 7.17063 13.1537 7.17063C13.5737 7.17063 13.8911 7.28263 14.1057 7.50663C14.3297 7.73063 14.4417 8.05729 14.4417 8.48663V11.1046H18.5157V8.48663C18.5157 8.05729 18.6231 7.73063 18.8377 7.50663C19.0617 7.28263 19.3837 7.17063 19.8037 7.17063C20.2144 7.17063 20.5271 7.28263 20.7417 7.50663C20.9657 7.73063 21.0777 8.05729 21.0777 8.48663V15.9766C21.0777 16.3966 20.9657 16.7233 20.7417 16.9566C20.5271 17.1806 20.2144 17.2926 19.8037 17.2926C19.3837 17.2926 19.0617 17.1806 18.8377 16.9566C18.6231 16.7233 18.5157 16.3966 18.5157 15.9766V13.2186H14.4417V15.9766C14.4417 16.3966 14.3344 16.7233 14.1197 16.9566C13.9051 17.1806 13.5831 17.2926 13.1537 17.2926ZM23.9356 17.2926C23.5436 17.2926 23.2403 17.176 23.0256 16.9426C22.8109 16.7093 22.7036 16.3733 22.7036 15.9346V11.5106C22.7036 11.072 22.8109 10.736 23.0256 10.5026C23.2403 10.2693 23.5436 10.1526 23.9356 10.1526C24.3369 10.1526 24.6449 10.2693 24.8596 10.5026C25.0836 10.736 25.1956 11.072 25.1956 11.5106V15.9346C25.1956 16.3733 25.0883 16.7093 24.8736 16.9426C24.6589 17.176 24.3463 17.2926 23.9356 17.2926ZM23.9356 9.15863C23.4969 9.15863 23.1563 9.05596 22.9136 8.85063C22.6803 8.64529 22.5636 8.34663 22.5636 7.95463C22.5636 7.57196 22.6803 7.27796 22.9136 7.07263C23.1563 6.86729 23.4969 6.76463 23.9356 6.76463C24.3929 6.76463 24.7383 6.86729 24.9716 7.07263C25.2049 7.27796 25.3216 7.57196 25.3216 7.95463C25.3216 8.34663 25.2049 8.64529 24.9716 8.85063C24.7383 9.05596 24.3929 9.15863 23.9356 9.15863ZM27.9151 17.2926C27.5044 17.2926 27.1871 17.1853 26.9631 16.9706C26.7484 16.756 26.6411 16.4433 26.6411 16.0326V11.3986C26.6411 10.9973 26.7438 10.6893 26.9491 10.4746C27.1638 10.26 27.4671 10.1526 27.8591 10.1526C28.2511 10.1526 28.5498 10.26 28.7551 10.4746C28.9604 10.6893 29.0631 10.9973 29.0631 11.3986V11.9726H28.9231C29.0164 11.4126 29.2544 10.9693 29.6371 10.6426C30.0291 10.316 30.5144 10.1433 31.0931 10.1246C31.3638 10.1153 31.5644 10.1853 31.6951 10.3346C31.8351 10.4746 31.9098 10.7406 31.9191 11.1326C31.9191 11.4686 31.8491 11.7346 31.7091 11.9306C31.5691 12.1266 31.3031 12.2433 30.9111 12.2806L30.5891 12.3086C30.0944 12.3553 29.7351 12.4953 29.5111 12.7286C29.2871 12.9526 29.1751 13.2886 29.1751 13.7366V16.0326C29.1751 16.4433 29.0678 16.756 28.8531 16.9706C28.6384 17.1853 28.3258 17.2926 27.9151 17.2926ZM36.3404 17.3206C35.5004 17.3206 34.7724 17.176 34.1564 16.8866C33.5497 16.588 33.083 16.168 32.7564 15.6266C32.4297 15.0853 32.2664 14.446 32.2664 13.7086C32.2664 12.9993 32.4204 12.3786 32.7284 11.8466C33.0457 11.3053 33.475 10.8853 34.0164 10.5866C34.567 10.2786 35.1924 10.1246 35.8924 10.1246C36.4057 10.1246 36.8724 10.2086 37.2924 10.3766C37.7124 10.5353 38.0717 10.7733 38.3704 11.0906C38.669 11.3986 38.893 11.772 39.0424 12.2106C39.201 12.6493 39.2804 13.1393 39.2804 13.6806C39.2804 13.8673 39.229 14.0073 39.1264 14.1006C39.0237 14.1846 38.8604 14.2266 38.6364 14.2266H34.3524V13.0506H37.4604L37.2364 13.2326C37.2364 12.8873 37.1897 12.6073 37.0964 12.3926C37.003 12.178 36.863 12.0146 36.6764 11.9026C36.499 11.7906 36.275 11.7346 36.0044 11.7346C35.715 11.7346 35.463 11.8046 35.2484 11.9446C35.043 12.0753 34.8844 12.2713 34.7724 12.5326C34.6604 12.794 34.6044 13.1206 34.6044 13.5126V13.6386C34.6044 14.3013 34.749 14.7773 35.0384 15.0666C35.337 15.3466 35.7944 15.4866 36.4104 15.4866C36.6157 15.4866 36.849 15.4633 37.1104 15.4166C37.381 15.3606 37.6377 15.286 37.8804 15.1926C38.123 15.0993 38.333 15.0853 38.5104 15.1506C38.6877 15.2066 38.823 15.3093 38.9164 15.4586C39.019 15.5986 39.075 15.762 39.0844 15.9486C39.0937 16.126 39.0517 16.3033 38.9584 16.4806C38.865 16.6486 38.711 16.7793 38.4964 16.8726C38.1697 17.022 37.8197 17.134 37.4464 17.2086C37.0824 17.2833 36.7137 17.3206 36.3404 17.3206ZM45.6198 17.2926C45.2278 17.2926 44.9245 17.1853 44.7098 16.9706C44.4952 16.756 44.3878 16.4433 44.3878 16.0326V11.3986C44.3878 10.9973 44.4905 10.6893 44.6958 10.4746C44.9105 10.26 45.2138 10.1526 45.6058 10.1526C45.9978 10.1526 46.2965 10.26 46.5018 10.4746C46.7072 10.6893 46.8098 10.9973 46.8098 11.3986V12.1686L46.6558 11.4826C46.8518 11.072 47.1412 10.7453 47.5238 10.5026C47.9158 10.2506 48.3778 10.1246 48.9098 10.1246C49.4138 10.1246 49.8432 10.246 50.1978 10.4886C50.5618 10.7313 50.8232 11.1 50.9818 11.5946H50.7858C51.0005 11.1373 51.3225 10.778 51.7518 10.5166C52.1812 10.2553 52.6572 10.1246 53.1798 10.1246C53.7212 10.1246 54.1645 10.232 54.5098 10.4466C54.8552 10.652 55.1118 10.9786 55.2798 11.4266C55.4572 11.8653 55.5458 12.4206 55.5458 13.0926V16.0326C55.5458 16.4433 55.4338 16.756 55.2098 16.9706C54.9952 17.1853 54.6872 17.2926 54.2858 17.2926C53.8938 17.2926 53.5905 17.1853 53.3758 16.9706C53.1612 16.756 53.0538 16.4433 53.0538 16.0326V13.1626C53.0538 12.7613 52.9932 12.472 52.8718 12.2946C52.7505 12.1173 52.5498 12.0286 52.2698 12.0286C51.9245 12.0286 51.6585 12.15 51.4718 12.3926C51.2945 12.6353 51.2058 12.9806 51.2058 13.4286V16.0326C51.2058 16.4433 51.0985 16.756 50.8838 16.9706C50.6692 17.1853 50.3612 17.2926 49.9598 17.2926C49.5585 17.2926 49.2505 17.1853 49.0358 16.9706C48.8212 16.756 48.7138 16.4433 48.7138 16.0326V13.1626C48.7138 12.7613 48.6532 12.472 48.5318 12.2946C48.4105 12.1173 48.2098 12.0286 47.9298 12.0286C47.5938 12.0286 47.3325 12.15 47.1458 12.3926C46.9685 12.6353 46.8798 12.9806 46.8798 13.4286V16.0326C46.8798 16.8726 46.4598 17.2926 45.6198 17.2926ZM60.7446 17.3206C59.9046 17.3206 59.1766 17.176 58.5606 16.8866C57.954 16.588 57.4873 16.168 57.1606 15.6266C56.834 15.0853 56.6706 14.446 56.6706 13.7086C56.6706 12.9993 56.8246 12.3786 57.1326 11.8466C57.45 11.3053 57.8793 10.8853 58.4206 10.5866C58.9713 10.2786 59.5966 10.1246 60.2966 10.1246C60.81 10.1246 61.2766 10.2086 61.6966 10.3766C62.1166 10.5353 62.476 10.7733 62.7746 11.0906C63.0733 11.3986 63.2973 11.772 63.4466 12.2106C63.6053 12.6493 63.6846 13.1393 63.6846 13.6806C63.6846 13.8673 63.6333 14.0073 63.5306 14.1006C63.428 14.1846 63.2646 14.2266 63.0406 14.2266H58.7566V13.0506H61.8646L61.6406 13.2326C61.6406 12.8873 61.594 12.6073 61.5006 12.3926C61.4073 12.178 61.2673 12.0146 61.0806 11.9026C60.9033 11.7906 60.6793 11.7346 60.4086 11.7346C60.1193 11.7346 59.8673 11.8046 59.6526 11.9446C59.4473 12.0753 59.2886 12.2713 59.1766 12.5326C59.0646 12.794 59.0086 13.1206 59.0086 13.5126V13.6386C59.0086 14.3013 59.1533 14.7773 59.4426 15.0666C59.7413 15.3466 60.1986 15.4866 60.8146 15.4866C61.02 15.4866 61.2533 15.4633 61.5146 15.4166C61.7853 15.3606 62.042 15.286 62.2846 15.1926C62.5273 15.0993 62.7373 15.0853 62.9146 15.1506C63.092 15.2066 63.2273 15.3093 63.3206 15.4586C63.4233 15.5986 63.4793 15.762 63.4886 15.9486C63.498 16.126 63.456 16.3033 63.3626 16.4806C63.2693 16.6486 63.1153 16.7793 62.9006 16.8726C62.574 17.022 62.224 17.134 61.8506 17.2086C61.4866 17.2833 61.118 17.3206 60.7446 17.3206Z" fill="white"/>
<defs>
<linearGradient id="paint0_linear_496_2102" x1="2.12341e-07" y1="15" x2="75" y2="15" gradientUnits="userSpaceOnUse">
<stop stop-color="#9C2C77" stop-opacity="0.7"/>
<stop offset="0.208333" stop-color="#CD104D" stop-opacity="0.7"/>
<stop offset="0.416667" stop-color="#E14D2A" stop-opacity="0.7"/>
<stop offset="1" stop-color="#FD841F" stop-opacity="0.7"/>
</linearGradient>
</defs>
</svg>
