<svg width="30" height="30" viewBox="0 0 30 30" fill="none" xmlns="http://www.w3.org/2000/svg">
<path fill-rule="evenodd" clip-rule="evenodd" d="M7.17541 10.21C8.11791 9.21622 8.45166 8.93747 8.85291 8.80872C9.13102 8.73556 9.42277 8.73127 9.70291 8.79622C10.0717 8.90372 10.1679 8.98497 11.3779 10.1887C12.4404 11.2462 12.5454 11.3612 12.6479 11.5637C12.8462 11.9282 12.8781 12.3603 12.7354 12.75C12.6304 13.0437 12.4754 13.2387 11.8317 13.8862L11.4117 14.3075C11.3012 14.4196 11.275 14.5898 11.3467 14.73C12.279 16.3207 13.6015 17.6475 15.1892 18.585C15.3723 18.6831 15.5979 18.6513 15.7467 18.5062L16.1504 18.1087C16.3999 17.8527 16.6641 17.6115 16.9417 17.3862C17.3769 17.1169 17.9202 17.0909 18.3792 17.3175C18.6029 17.4225 18.6779 17.4912 19.7742 18.5837C20.8992 19.7087 20.9354 19.745 21.0617 20.0037C21.2974 20.4323 21.295 20.9523 21.0554 21.3787C20.9304 21.6187 20.8604 21.7062 20.2254 22.355C19.8417 22.7475 19.4754 23.105 19.4229 23.1575C18.8985 23.5909 18.2262 23.8038 17.5479 23.7512C16.3069 23.6376 15.1059 23.2536 14.0292 22.6262C11.6427 21.3618 9.61122 19.5194 8.12041 17.2675C7.7944 16.7967 7.50441 16.3019 7.25291 15.7875C6.58279 14.6387 6.23636 13.3298 6.25041 12C6.30082 11.3019 6.63513 10.6549 7.17541 10.21Z" stroke="black" stroke-width="1.5" stroke-linecap="round" stroke-linejoin="round"/>
<path d="M17.8637 5.54409C17.4739 5.40416 17.0444 5.60677 16.9044 5.99664C16.7645 6.3865 16.9671 6.81598 17.357 6.95591L17.8637 5.54409ZM23.0338 12.5377C23.1803 12.9252 23.6131 13.1205 24.0006 12.974C24.388 12.8275 24.5834 12.3947 24.4369 12.0073L23.0338 12.5377ZM16.4006 8.33467C15.9965 8.24343 15.595 8.49699 15.5038 8.90103C15.4125 9.30507 15.6661 9.70658 16.0701 9.79782L16.4006 8.33467ZM20.2691 13.9274C20.3671 14.3299 20.7728 14.5767 21.1752 14.4787C21.5777 14.3807 21.8245 13.9751 21.7266 13.5726L20.2691 13.9274ZM17.357 6.95591C19.9752 7.89564 22.05 9.93572 23.0338 12.5377L24.4369 12.0073C23.2978 8.9944 20.8954 6.6322 17.8637 5.54409L17.357 6.95591ZM16.0701 9.79782C18.1404 10.2654 19.7671 11.8652 20.2691 13.9274L21.7266 13.5726C21.0898 10.957 19.0265 8.92771 16.4006 8.33467L16.0701 9.79782Z" fill="black"/>
</svg>
