<svg width="30" height="30" viewBox="0 0 30 30" fill="none" xmlns="http://www.w3.org/2000/svg">
<path fill-rule="evenodd" clip-rule="evenodd" d="M9.68681 21.6982C8.86419 21.8401 8.02005 21.6257 7.36481 21.1085C6.70957 20.5913 6.30495 19.82 6.25181 18.987V10.0345C6.21354 9.09506 6.78493 8.23797 7.66681 7.91198C10.257 6.96143 13.165 7.68942 15.0018 9.74823V22.5245C13.7706 21.4895 11.6431 21.427 9.68681 21.6982Z" stroke="white" stroke-width="1.5" stroke-linecap="round" stroke-linejoin="round"/>
<path fill-rule="evenodd" clip-rule="evenodd" d="M20.3168 21.6982C21.1395 21.8401 21.9836 21.6257 22.6388 21.1085C23.2941 20.5913 23.6987 19.82 23.7518 18.987V10.0345C23.7901 9.09506 23.2187 8.23797 22.3368 7.91198C19.7466 6.96143 16.8386 7.68942 15.0018 9.74823V22.5245C16.2331 21.4895 18.3606 21.427 20.3168 21.6982Z" stroke="white" stroke-width="1.5" stroke-linecap="round" stroke-linejoin="round"/>
<path d="M11.8768 14.5244C12.291 14.5244 12.6268 14.1886 12.6268 13.7744C12.6268 13.3602 12.291 13.0244 11.8768 13.0244V14.5244ZM9.37683 13.0244C8.96262 13.0244 8.62683 13.3602 8.62683 13.7744C8.62683 14.1886 8.96262 14.5244 9.37683 14.5244V13.0244ZM11.8768 17.0244C12.291 17.0244 12.6268 16.6886 12.6268 16.2744C12.6268 15.8602 12.291 15.5244 11.8768 15.5244V17.0244ZM9.37683 15.5244C8.96262 15.5244 8.62683 15.8602 8.62683 16.2744C8.62683 16.6886 8.96262 17.0244 9.37683 17.0244V15.5244ZM20.6268 14.5244C21.041 14.5244 21.3768 14.1886 21.3768 13.7744C21.3768 13.3602 21.041 13.0244 20.6268 13.0244V14.5244ZM18.1268 13.0244C17.7126 13.0244 17.3768 13.3602 17.3768 13.7744C17.3768 14.1886 17.7126 14.5244 18.1268 14.5244V13.0244ZM20.6268 17.0244C21.041 17.0244 21.3768 16.6886 21.3768 16.2744C21.3768 15.8602 21.041 15.5244 20.6268 15.5244V17.0244ZM18.1268 15.5244C17.7126 15.5244 17.3768 15.8602 17.3768 16.2744C17.3768 16.6886 17.7126 17.0244 18.1268 17.0244V15.5244ZM11.8768 13.0244H9.37683V14.5244H11.8768V13.0244ZM11.8768 15.5244H9.37683V17.0244H11.8768V15.5244ZM20.6268 13.0244H18.1268V14.5244H20.6268V13.0244ZM20.6268 15.5244H18.1268V17.0244H20.6268V15.5244Z" fill="white"/>
</svg>
