<svg width="40" height="40" viewBox="0 0 40 40" fill="none" xmlns="http://www.w3.org/2000/svg">
<path fill-rule="evenodd" clip-rule="evenodd" d="M13.1938 18.1799C13.193 16.8122 13.5918 15.474 14.3412 14.3299C15.0834 13.195 16.1464 12.3064 17.395 11.7774C19.06 11.0742 20.9387 11.0742 22.6038 11.7774C23.8528 12.3062 24.9163 13.1948 25.6588 14.3299C27.1822 16.6572 27.191 19.6637 25.6813 21.9999L28.75 27.4649L25.5175 26.8399L24.4837 29.9999L21.635 24.9062C20.5618 25.1767 19.4382 25.1767 18.365 24.9062L15.5162 29.9999L14.4825 26.8387L11.25 27.4649L14.3188 21.9999C13.5829 20.8619 13.1922 19.5352 13.1938 18.1799V18.1799Z" stroke="#F2CD5C" stroke-width="1.5" stroke-linecap="round" stroke-linejoin="round"/>
<path fill-rule="evenodd" clip-rule="evenodd" d="M19.68 15.4087C19.7402 15.2866 19.8645 15.2093 20.0006 15.2093C20.1367 15.2093 20.261 15.2866 20.3213 15.4087L20.985 16.7162C21.0346 16.8151 21.1266 16.886 21.235 16.9087L22.625 17.1874C22.7523 17.2175 22.8547 17.3117 22.8953 17.436C22.9359 17.5603 22.9088 17.6968 22.8237 17.7962L21.8313 18.9212C21.7614 19.0011 21.7287 19.107 21.7413 19.2124L21.925 20.7349C21.9436 20.868 21.8871 21.0005 21.778 21.0791C21.669 21.1578 21.5254 21.1696 21.405 21.1099L20.155 20.4749C20.0538 20.4231 19.9337 20.4231 19.8325 20.4749L18.5825 21.1099C18.4621 21.1696 18.3185 21.1578 18.2095 21.0791C18.1005 21.0005 18.0439 20.868 18.0625 20.7349L18.2463 19.2162C18.2588 19.1107 18.2261 19.0049 18.1563 18.9249L17.1638 17.7999C17.0767 17.6988 17.0499 17.5591 17.0934 17.433C17.1369 17.3069 17.2441 17.2134 17.375 17.1874L18.765 16.9074C18.8734 16.8848 18.9654 16.8139 19.015 16.7149L19.68 15.4087Z" stroke="#F2CD5C" stroke-width="1.5" stroke-linecap="round" stroke-linejoin="round"/>
<path d="M14.9471 21.5904C14.721 21.2434 14.2563 21.1454 13.9093 21.3715C13.5622 21.5977 13.4643 22.0623 13.6904 22.4094L14.9471 21.5904ZM15.1938 23.0849L15.7294 22.5599L15.7271 22.5575L15.1938 23.0849ZM17.9775 24.7999L18.2064 24.0857L18.2055 24.0854L17.9775 24.7999ZM18.1883 25.6397C18.59 25.7408 18.9975 25.4971 19.0986 25.0954C19.1996 24.6937 18.9559 24.2861 18.5542 24.185L18.1883 25.6397ZM26.3096 22.4094C26.5358 22.0623 26.4378 21.5977 26.0907 21.3715C25.7437 21.1454 25.2791 21.2434 25.0529 21.5904L26.3096 22.4094ZM24.8063 23.0849L24.2729 22.5575L24.2706 22.5599L24.8063 23.0849ZM22.0225 24.7999L21.7946 24.0854L21.7936 24.0857L22.0225 24.7999ZM21.4458 24.185C21.0441 24.2861 20.8004 24.6937 20.9014 25.0954C21.0025 25.4971 21.41 25.7408 21.8117 25.6397L21.4458 24.185ZM13.6904 22.4094C13.9724 22.842 14.2974 23.245 14.6604 23.6122L15.7271 22.5575C15.4351 22.2623 15.1738 21.9383 14.9471 21.5904L13.6904 22.4094ZM14.6581 23.6098C15.5179 24.4872 16.5792 25.141 17.7496 25.5144L18.2055 24.0854C17.2681 23.7863 16.4181 23.2626 15.7294 22.5599L14.6581 23.6098ZM17.7486 25.5141C17.8938 25.5606 18.0403 25.6025 18.1883 25.6397L18.5542 24.185C18.4372 24.1556 18.3212 24.1225 18.2064 24.0857L17.7486 25.5141ZM25.0529 21.5904C24.8262 21.9383 24.5649 22.2623 24.2729 22.5575L25.3396 23.6122C25.7027 23.245 26.0277 22.842 26.3096 22.4094L25.0529 21.5904ZM24.2706 22.5599C23.5819 23.2626 22.7319 23.7863 21.7946 24.0854L22.2505 25.5144C23.4208 25.141 24.4821 24.4872 25.3419 23.6098L24.2706 22.5599ZM21.7936 24.0857C21.6788 24.1225 21.5628 24.1556 21.4458 24.185L21.8117 25.6397C21.9597 25.6025 22.1062 25.5606 22.2514 25.5141L21.7936 24.0857Z" fill="#F2CD5C"/>
<circle cx="20" cy="20" r="18.5" stroke="#F2CD5C" stroke-width="3"/>
</svg>
