<svg width="30" height="30" viewBox="0 0 30 30" fill="none" xmlns="http://www.w3.org/2000/svg">
<path d="M24.2505 11.2796C24.2652 11.6936 24.6127 12.0172 25.0267 12.0025C25.4406 11.9877 25.7643 11.6402 25.7495 11.2263L24.2505 11.2796ZM19.6425 6.25295V7.00295C19.6509 7.00295 19.6592 7.00281 19.6676 7.00253L19.6425 6.25295ZM11.6075 6.25295L11.5824 7.00253C11.5908 7.00281 11.5991 7.00295 11.6075 7.00295V6.25295ZM5.50048 11.2263C5.48573 11.6402 5.80936 11.9877 6.22331 12.0025C6.63726 12.0172 6.98478 11.6936 6.99952 11.2796L5.50048 11.2263ZM25.75 11.253C25.75 10.8387 25.4142 10.503 25 10.503C24.5858 10.503 24.25 10.8387 24.25 11.253H25.75ZM25 18.753L25.7495 18.7796C25.7498 18.7707 25.75 18.7618 25.75 18.753L25 18.753ZM19.6425 23.7529L19.6676 23.0034C19.6592 23.0031 19.6509 23.0029 19.6425 23.0029V23.7529ZM11.6075 23.7529V23.0029C11.5991 23.0029 11.5908 23.0031 11.5824 23.0034L11.6075 23.7529ZM6.25 18.753H5.5C5.5 18.7618 5.50016 18.7707 5.50048 18.7796L6.25 18.753ZM7 11.253C7 10.8387 6.66421 10.503 6.25 10.503C5.83579 10.503 5.5 10.8387 5.5 11.253H7ZM25.3783 11.9006C25.736 11.6916 25.8565 11.2323 25.6476 10.8746C25.4387 10.517 24.9794 10.3964 24.6217 10.6053L25.3783 11.9006ZM18.42 15.0967L18.0417 14.4491L18.0355 14.4528L18.42 15.0967ZM12.83 15.0967L13.2146 14.4528L13.2083 14.4491L12.83 15.0967ZM6.6283 10.6053C6.27064 10.3964 5.81133 10.517 5.6024 10.8746C5.39347 11.2323 5.51404 11.6916 5.8717 11.9006L6.6283 10.6053ZM25.7495 11.2263C25.633 7.95421 22.8897 5.394 19.6174 5.50337L19.6676 7.00253C22.1132 6.92079 24.1634 8.83421 24.2505 11.2796L25.7495 11.2263ZM19.6425 5.50295H11.6075V7.00295H19.6425V5.50295ZM11.6326 5.50337C8.36025 5.394 5.61699 7.95421 5.50048 11.2263L6.99952 11.2796C7.0866 8.83421 9.13683 6.92079 11.5824 7.00253L11.6326 5.50337ZM24.25 11.253V18.753H25.75V11.253H24.25ZM24.2505 18.7263C24.1634 21.1717 22.1132 23.0851 19.6676 23.0034L19.6174 24.5025C22.8897 24.6119 25.633 22.0517 25.7495 18.7796L24.2505 18.7263ZM19.6425 23.0029H11.6075V24.5029H19.6425V23.0029ZM11.5824 23.0034C9.13683 23.0851 7.0866 21.1717 6.99952 18.7263L5.50048 18.7796C5.61699 22.0517 8.36025 24.6119 11.6326 24.5025L11.5824 23.0034ZM7 18.753V11.253H5.5V18.753H7ZM24.6217 10.6053L18.0417 14.4491L18.7983 15.7443L25.3783 11.9006L24.6217 10.6053ZM18.0355 14.4528C16.5508 15.3394 14.6992 15.3394 13.2145 14.4528L12.4455 15.7406C14.4038 16.9102 16.8462 16.9102 18.8045 15.7406L18.0355 14.4528ZM13.2083 14.4491L6.6283 10.6053L5.8717 11.9006L12.4517 15.7443L13.2083 14.4491Z" fill="black"/>
</svg>
