<svg width="61" height="20" viewBox="0 0 61 20" fill="none" xmlns="http://www.w3.org/2000/svg">
<rect width="61" height="20" rx="10" fill="#CD104D"/>
<path d="M9.884 14C9.588 14 9.36 13.924 9.2 13.772C9.048 13.612 8.972 13.388 8.972 13.1C8.972 12.812 9.048 12.592 9.2 12.44C9.36 12.288 9.588 12.212 9.884 12.212H10.964V7.304H11.972L10.232 8.372C10.024 8.5 9.828 8.552 9.644 8.528C9.46 8.496 9.304 8.416 9.176 8.288C9.048 8.16 8.964 8.004 8.924 7.82C8.884 7.636 8.9 7.452 8.972 7.268C9.044 7.084 9.188 6.928 9.404 6.8L11.06 5.768C11.236 5.656 11.416 5.572 11.6 5.516C11.792 5.46 11.992 5.432 12.2 5.432C12.504 5.432 12.74 5.512 12.908 5.672C13.076 5.824 13.16 6.048 13.16 6.344V12.212H14.12C14.416 12.212 14.64 12.288 14.792 12.44C14.952 12.592 15.032 12.812 15.032 13.1C15.032 13.388 14.952 13.612 14.792 13.772C14.64 13.924 14.416 14 14.12 14H9.884ZM20.1169 11.612C19.8769 11.612 19.6769 11.532 19.5169 11.372C19.3569 11.212 19.2769 11.012 19.2769 10.772C19.2769 10.532 19.3569 10.336 19.5169 10.184C19.6769 10.024 19.8769 9.944 20.1169 9.944H22.4929C22.7329 9.944 22.9329 10.024 23.0929 10.184C23.2529 10.336 23.3329 10.532 23.3329 10.772C23.3329 11.012 23.2529 11.212 23.0929 11.372C22.9329 11.532 22.7329 11.612 22.4929 11.612H20.1169ZM29.1343 14C28.7823 14 28.5263 13.92 28.3663 13.76C28.2143 13.592 28.1383 13.348 28.1383 13.028C28.1383 12.804 28.1863 12.604 28.2823 12.428C28.3863 12.252 28.5183 12.08 28.6783 11.912L30.7783 9.716C31.0903 9.38 31.3103 9.092 31.4383 8.852C31.5743 8.612 31.6423 8.372 31.6423 8.132C31.6423 7.828 31.5423 7.6 31.3423 7.448C31.1423 7.296 30.8543 7.22 30.4783 7.22C30.2863 7.22 30.0823 7.248 29.8663 7.304C29.6503 7.352 29.4183 7.44 29.1702 7.568C28.9543 7.664 28.7583 7.692 28.5823 7.652C28.4143 7.612 28.2703 7.524 28.1503 7.388C28.0383 7.252 27.9663 7.096 27.9343 6.92C27.9103 6.744 27.9383 6.572 28.0183 6.404C28.0983 6.228 28.2423 6.084 28.4503 5.972C28.8183 5.772 29.1983 5.628 29.5903 5.54C29.9903 5.452 30.3903 5.408 30.7903 5.408C31.4463 5.408 31.9943 5.504 32.4343 5.696C32.8823 5.888 33.2223 6.168 33.4543 6.536C33.6863 6.896 33.8023 7.344 33.8023 7.88C33.8023 8.216 33.7503 8.544 33.6463 8.864C33.5503 9.184 33.3903 9.504 33.1663 9.824C32.9503 10.144 32.6583 10.484 32.2903 10.844L30.3463 12.764V12.212H33.3103C33.6063 12.212 33.8303 12.288 33.9823 12.44C34.1423 12.592 34.2223 12.812 34.2223 13.1C34.2223 13.388 34.1423 13.612 33.9823 13.772C33.8303 13.924 33.6063 14 33.3103 14H29.1343ZM36.9416 16.268C36.6936 16.268 36.4936 16.204 36.3416 16.076C36.1896 15.948 36.0936 15.78 36.0536 15.572C36.0216 15.364 36.0576 15.144 36.1616 14.912L36.9656 13.172V14.036L34.9136 9.344C34.8096 9.104 34.7736 8.88 34.8056 8.672C34.8456 8.464 34.9536 8.3 35.1296 8.18C35.3056 8.052 35.5456 7.988 35.8496 7.988C36.1056 7.988 36.3096 8.048 36.4616 8.168C36.6216 8.28 36.7656 8.504 36.8936 8.84L38.0936 11.96H37.6856L38.9576 8.828C39.0856 8.5 39.2296 8.28 39.3896 8.168C39.5576 8.048 39.7816 7.988 40.0616 7.988C40.3016 7.988 40.4936 8.052 40.6376 8.18C40.7816 8.3 40.8696 8.464 40.9016 8.672C40.9336 8.88 40.8976 9.104 40.7936 9.344L38.0696 15.464C37.9256 15.784 37.7656 15.996 37.5896 16.1C37.4216 16.212 37.2056 16.268 36.9416 16.268ZM42.8098 14.108C42.4578 14.108 42.1858 14.016 41.9938 13.832C41.8098 13.648 41.7178 13.38 41.7178 13.028V9.056C41.7178 8.712 41.8058 8.448 41.9818 8.264C42.1658 8.08 42.4258 7.988 42.7618 7.988C43.0978 7.988 43.3538 8.08 43.5298 8.264C43.7058 8.448 43.7938 8.712 43.7938 9.056V9.548H43.6738C43.7538 9.068 43.9578 8.688 44.2858 8.408C44.6218 8.128 45.0378 7.98 45.5338 7.964C45.7658 7.956 45.9378 8.016 46.0498 8.144C46.1698 8.264 46.2338 8.492 46.2418 8.828C46.2418 9.116 46.1818 9.344 46.0618 9.512C45.9418 9.68 45.7138 9.78 45.3778 9.812L45.1018 9.836C44.6778 9.876 44.3698 9.996 44.1777 10.196C43.9858 10.388 43.8898 10.676 43.8898 11.06V13.028C43.8898 13.38 43.7978 13.648 43.6138 13.832C43.4298 14.016 43.1618 14.108 42.8098 14.108ZM49.2143 14.132C48.8623 14.132 48.5023 14.104 48.1343 14.048C47.7743 14 47.4463 13.908 47.1503 13.772C46.9503 13.692 46.8063 13.584 46.7183 13.448C46.6383 13.312 46.5983 13.168 46.5983 13.016C46.6063 12.864 46.6503 12.728 46.7303 12.608C46.8183 12.48 46.9303 12.392 47.0663 12.344C47.2103 12.288 47.3703 12.292 47.5463 12.356C47.8823 12.476 48.1823 12.564 48.4463 12.62C48.7183 12.668 48.9783 12.692 49.2263 12.692C49.5223 12.692 49.7343 12.652 49.8623 12.572C49.9903 12.484 50.0543 12.372 50.0543 12.236C50.0543 12.116 50.0103 12.024 49.9223 11.96C49.8423 11.896 49.7263 11.852 49.5743 11.828L48.2423 11.612C47.7463 11.524 47.3623 11.344 47.0903 11.072C46.8183 10.792 46.6823 10.428 46.6823 9.98C46.6823 9.564 46.7983 9.208 47.0303 8.912C47.2703 8.608 47.5943 8.376 48.0023 8.216C48.4183 8.048 48.8943 7.964 49.4303 7.964C49.7903 7.964 50.1183 7.992 50.4143 8.048C50.7103 8.096 50.9983 8.188 51.2783 8.324C51.4543 8.396 51.5783 8.5 51.6503 8.636C51.7223 8.772 51.7503 8.916 51.7343 9.068C51.7183 9.212 51.6663 9.348 51.5783 9.476C51.4983 9.596 51.3863 9.68 51.2423 9.728C51.0983 9.768 50.9303 9.756 50.7383 9.692C50.4743 9.588 50.2383 9.512 50.0303 9.464C49.8303 9.416 49.6423 9.392 49.4663 9.392C49.1383 9.392 48.9063 9.436 48.7703 9.524C48.6343 9.612 48.5663 9.724 48.5663 9.86C48.5663 9.964 48.6023 10.052 48.6743 10.124C48.7463 10.188 48.8583 10.232 49.0103 10.256L50.3423 10.484C50.8543 10.564 51.2463 10.74 51.5183 11.012C51.7983 11.276 51.9383 11.636 51.9383 12.092C51.9383 12.74 51.6903 13.244 51.1943 13.604C50.6983 13.956 50.0383 14.132 49.2143 14.132Z" fill="white"/>
</svg>
