<svg width="24" height="24" viewBox="0 0 24 24" fill="none" xmlns="http://www.w3.org/2000/svg">
<path fill-rule="evenodd" clip-rule="evenodd" d="M5.86343 6.36195C6.74343 5.43495 7.05443 5.17495 7.42943 5.05395C7.68895 4.98595 7.96112 4.98217 8.22243 5.04295C8.56643 5.14295 8.65743 5.21895 9.78543 6.34295C10.7764 7.32995 10.8754 7.43695 10.9704 7.62995C11.1521 7.96873 11.1805 8.36894 11.0484 8.72995C10.9484 9.00495 10.8064 9.18695 10.2054 9.78995L9.81343 10.183C9.71048 10.2876 9.68629 10.4464 9.75343 10.577C10.6244 12.0628 11.86 13.3019 13.3434 14.177C13.5142 14.2684 13.7245 14.2389 13.8634 14.104L14.2404 13.733C14.4734 13.4941 14.7202 13.2691 14.9794 13.059C15.3866 12.809 15.8939 12.7867 16.3214 13C16.5304 13.1 16.5994 13.162 17.6214 14.182C18.6754 15.233 18.7054 15.266 18.8214 15.507C19.0397 15.9059 19.0374 16.3891 18.8154 16.786C18.7024 17.01 18.6334 17.091 18.0404 17.697C17.6824 18.063 17.3454 18.397 17.2914 18.446C16.8022 18.851 16.1746 19.0497 15.5414 19C14.383 18.8944 13.2617 18.5363 12.2564 17.951C10.0296 16.7711 8.13383 15.0521 6.74243 12.951C6.43937 12.5112 6.16994 12.0492 5.93643 11.569C5.31001 10.4953 4.98653 9.27189 5.00043 8.02895C5.04825 7.37871 5.36008 6.77637 5.86343 6.36195Z" stroke="black" stroke-width="1.5" stroke-linecap="round" stroke-linejoin="round"/>
</svg>
