<svg width="30" height="30" viewBox="0 0 30 30" fill="none" xmlns="http://www.w3.org/2000/svg">
<path fill-rule="evenodd" clip-rule="evenodd" d="M18.4375 9.6875C18.4375 11.586 16.8985 13.125 15 13.125C13.1015 13.125 11.5625 11.586 11.5625 9.6875C11.5625 7.78902 13.1015 6.25 15 6.25C16.8985 6.25 18.4375 7.78902 18.4375 9.6875Z" stroke="white" stroke-width="1.5" stroke-linecap="round" stroke-linejoin="round"/>
<path d="M8.87467 19.6727C8.86238 19.2587 8.51679 18.933 8.10275 18.9453C7.68872 18.9576 7.36304 19.3032 7.37533 19.7172L8.87467 19.6727ZM12.3562 23.6875V22.9375C12.3492 22.9375 12.3421 22.9376 12.335 22.9378L12.3562 23.6875ZM17.6437 23.6875L17.665 22.9378C17.6579 22.9376 17.6508 22.9375 17.6438 22.9375L17.6437 23.6875ZM22.6247 19.7172C22.637 19.3032 22.3113 18.9576 21.8972 18.9453C21.4832 18.933 21.1376 19.2587 21.1253 19.6727L22.6247 19.7172ZM21.1253 19.536C21.1376 19.95 21.4832 20.2757 21.8972 20.2634C22.3113 20.2511 22.637 19.9055 22.6247 19.4915L21.1253 19.536ZM17.6437 15.5212V16.2712C17.6508 16.2712 17.6579 16.2711 17.665 16.2709L17.6437 15.5212ZM12.3562 15.5212L12.335 16.2709C12.3421 16.2711 12.3492 16.2712 12.3562 16.2712V15.5212ZM7.37533 19.4915C7.36304 19.9055 7.68872 20.2511 8.10275 20.2634C8.51679 20.2757 8.86238 19.95 8.87467 19.536L7.37533 19.4915ZM7.37533 19.7172C7.45497 22.4012 9.6935 24.5134 12.3775 24.4372L12.335 22.9378C10.4783 22.9905 8.92976 21.5293 8.87467 19.6727L7.37533 19.7172ZM12.3562 24.4375H17.6437V22.9375H12.3562V24.4375ZM17.6225 24.4372C20.3065 24.5134 22.545 22.4012 22.6247 19.7172L21.1253 19.6727C21.0702 21.5293 19.5217 22.9905 17.665 22.9378L17.6225 24.4372ZM22.6247 19.4915C22.545 16.8075 20.3065 14.6953 17.6225 14.7715L17.665 16.2709C19.5217 16.2182 21.0702 17.6793 21.1253 19.536L22.6247 19.4915ZM17.6437 14.7712H12.3562V16.2712H17.6437V14.7712ZM12.3775 14.7715C9.6935 14.6953 7.45497 16.8075 7.37533 19.4915L8.87467 19.536C8.92976 17.6793 10.4783 16.2182 12.335 16.2709L12.3775 14.7715Z" fill="white"/>
</svg>
