<svg width="30" height="30" viewBox="0 0 30 30" fill="none" xmlns="http://www.w3.org/2000/svg">
<path fill-rule="evenodd" clip-rule="evenodd" d="M15.1232 23.7513C10.8732 23.7513 7.4982 20.9113 7.50695 16.8651C7.48343 16.4628 7.51966 16.0592 7.61445 15.6676C7.77945 14.9301 8.17695 13.4876 8.4982 12.3626C8.68195 11.7176 9.8807 11.4313 10.5582 11.6126C11.4845 11.8626 12.0495 11.0738 12.2407 10.1801C12.45 9.15242 12.8128 8.16215 13.317 7.24255C14.5045 5.1263 16.5982 6.7613 18.042 8.7263C18.6339 9.48916 19.3131 10.1801 20.0657 10.7851C23.0657 13.7951 23.4695 19.0851 20.2557 21.8951C18.829 23.1198 17.0033 23.7801 15.1232 23.7513Z" stroke="white" stroke-width="1.5" stroke-linecap="round" stroke-linejoin="round"/>
</svg>
