<svg width="81" height="30" viewBox="0 0 81 30" fill="none" xmlns="http://www.w3.org/2000/svg">
<rect width="81" height="30" rx="15" fill="#FD841F"/>
<path d="M26.5236 20.135C26.0836 20.135 25.7436 20.015 25.5036 19.775C25.2636 19.525 25.1436 19.175 25.1436 18.725V10.7C25.1436 10.24 25.2636 9.89 25.5036 9.65C25.7436 9.41 26.0836 9.29 26.5236 9.29C26.9736 9.29 27.3136 9.41 27.5436 9.65C27.7836 9.89 27.9036 10.24 27.9036 10.7V13.505H32.2686V10.7C32.2686 10.24 32.3836 9.89 32.6136 9.65C32.8536 9.41 33.1986 9.29 33.6486 9.29C34.0886 9.29 34.4236 9.41 34.6536 9.65C34.8936 9.89 35.0136 10.24 35.0136 10.7V18.725C35.0136 19.175 34.8936 19.525 34.6536 19.775C34.4236 20.015 34.0886 20.135 33.6486 20.135C33.1986 20.135 32.8536 20.015 32.6136 19.775C32.3836 19.525 32.2686 19.175 32.2686 18.725V15.77H27.9036V18.725C27.9036 19.175 27.7886 19.525 27.5586 19.775C27.3286 20.015 26.9836 20.135 26.5236 20.135ZM38.0756 20.135C37.6556 20.135 37.3306 20.01 37.1006 19.76C36.8706 19.51 36.7556 19.15 36.7556 18.68V13.94C36.7556 13.47 36.8706 13.11 37.1006 12.86C37.3306 12.61 37.6556 12.485 38.0756 12.485C38.5056 12.485 38.8356 12.61 39.0656 12.86C39.3056 13.11 39.4256 13.47 39.4256 13.94V18.68C39.4256 19.15 39.3106 19.51 39.0806 19.76C38.8506 20.01 38.5156 20.135 38.0756 20.135ZM38.0756 11.42C37.6056 11.42 37.2406 11.31 36.9806 11.09C36.7306 10.87 36.6056 10.55 36.6056 10.13C36.6056 9.72 36.7306 9.405 36.9806 9.185C37.2406 8.965 37.6056 8.855 38.0756 8.855C38.5656 8.855 38.9356 8.965 39.1856 9.185C39.4356 9.405 39.5606 9.72 39.5606 10.13C39.5606 10.55 39.4356 10.87 39.1856 11.09C38.9356 11.31 38.5656 11.42 38.0756 11.42ZM43.8543 20.165C43.2243 20.165 42.6643 20.01 42.1743 19.7C41.6943 19.39 41.3143 18.945 41.0343 18.365C40.7643 17.785 40.6293 17.1 40.6293 16.31C40.6293 15.5 40.7643 14.81 41.0343 14.24C41.3143 13.67 41.6943 13.23 42.1743 12.92C42.6643 12.61 43.2243 12.455 43.8543 12.455C44.4043 12.455 44.8993 12.585 45.3393 12.845C45.7793 13.105 46.0743 13.44 46.2243 13.85H46.0593V10.64C46.0593 10.2 46.1743 9.865 46.4043 9.635C46.6343 9.405 46.9643 9.29 47.3943 9.29C47.8143 9.29 48.1393 9.405 48.3693 9.635C48.6093 9.865 48.7293 10.2 48.7293 10.64V18.785C48.7293 19.225 48.6143 19.56 48.3843 19.79C48.1643 20.02 47.8393 20.135 47.4093 20.135C46.9893 20.135 46.6643 20.02 46.4343 19.79C46.2043 19.56 46.0893 19.225 46.0893 18.785V17.93L46.2543 18.665C46.1143 19.115 45.8193 19.48 45.3693 19.76C44.9293 20.03 44.4243 20.165 43.8543 20.165ZM44.7093 18.2C44.9793 18.2 45.2193 18.135 45.4293 18.005C45.6393 17.865 45.7993 17.66 45.9093 17.39C46.0293 17.11 46.0893 16.75 46.0893 16.31C46.0893 15.64 45.9593 15.16 45.6993 14.87C45.4393 14.57 45.1093 14.42 44.7093 14.42C44.4393 14.42 44.1993 14.485 43.9893 14.615C43.7793 14.745 43.6143 14.95 43.4943 15.23C43.3743 15.5 43.3143 15.86 43.3143 16.31C43.3143 16.97 43.4443 17.45 43.7043 17.75C43.9643 18.05 44.2993 18.2 44.7093 18.2ZM54.2961 20.165C53.3961 20.165 52.6161 20.01 51.9561 19.7C51.3061 19.38 50.8061 18.93 50.4561 18.35C50.1061 17.77 49.9311 17.085 49.9311 16.295C49.9311 15.535 50.0961 14.87 50.4261 14.3C50.7661 13.72 51.2261 13.27 51.8061 12.95C52.3961 12.62 53.0661 12.455 53.8161 12.455C54.3661 12.455 54.8661 12.545 55.3161 12.725C55.7661 12.895 56.1511 13.15 56.4711 13.49C56.7911 13.82 57.0311 14.22 57.1911 14.69C57.3611 15.16 57.4461 15.685 57.4461 16.265C57.4461 16.465 57.3911 16.615 57.2811 16.715C57.1711 16.805 56.9961 16.85 56.7561 16.85H52.1661V15.59H55.4961L55.2561 15.785C55.2561 15.415 55.2061 15.115 55.1061 14.885C55.0061 14.655 54.8561 14.48 54.6561 14.36C54.4661 14.24 54.2261 14.18 53.9361 14.18C53.6261 14.18 53.3561 14.255 53.1261 14.405C52.9061 14.545 52.7361 14.755 52.6161 15.035C52.4961 15.315 52.4361 15.665 52.4361 16.085V16.22C52.4361 16.93 52.5911 17.44 52.9011 17.75C53.2211 18.05 53.7111 18.2 54.3711 18.2C54.5911 18.2 54.8411 18.175 55.1211 18.125C55.4111 18.065 55.6861 17.985 55.9461 17.885C56.2061 17.785 56.4311 17.77 56.6211 17.84C56.8111 17.9 56.9561 18.01 57.0561 18.17C57.1661 18.32 57.2261 18.495 57.2361 18.695C57.2461 18.885 57.2011 19.075 57.1011 19.265C57.0011 19.445 56.8361 19.585 56.6061 19.685C56.2561 19.845 55.8811 19.965 55.4811 20.045C55.0911 20.125 54.6961 20.165 54.2961 20.165Z" fill="white"/>
</svg>
