<svg width="24" height="24" viewBox="0 0 24 24" fill="none" xmlns="http://www.w3.org/2000/svg">
<path fill-rule="evenodd" clip-rule="evenodd" d="M5 12.0002C5.00024 8.66068 7.35944 5.78639 10.6348 5.1351C13.9102 4.48382 17.1895 6.23693 18.4673 9.32231C19.7451 12.4077 18.6655 15.966 15.8887 17.8212C13.1119 19.6764 9.41127 19.3117 7.05 16.9502C5.73728 15.6373 4.99987 13.8568 5 12.0002Z" stroke="white" stroke-width="1.5" stroke-linecap="round" stroke-linejoin="round"/>
<path d="M8.84477 14.0938C8.55182 14.3866 8.55173 14.8615 8.84457 15.1544C9.13741 15.4474 9.61228 15.4475 9.90523 15.1546L8.84477 14.0938ZM12.5302 12.5306C12.8232 12.2378 12.8233 11.7629 12.5304 11.47C12.2376 11.177 11.7627 11.1769 11.4698 11.4698L12.5302 12.5306ZM11.4695 11.4701C11.1767 11.7631 11.1769 12.2379 11.4699 12.5307C11.7629 12.8235 12.2378 12.8233 12.5305 12.5303L11.4695 11.4701ZM15.1545 9.90432C15.4473 9.61131 15.4471 9.13644 15.1541 8.84366C14.8611 8.55088 14.3862 8.55106 14.0935 8.84406L15.1545 9.90432ZM12.5302 11.4698C12.2373 11.1769 11.7624 11.177 11.4696 11.47C11.1767 11.7629 11.1768 12.2378 11.4698 12.5306L12.5302 11.4698ZM14.0948 15.1546C14.3877 15.4475 14.8626 15.4474 15.1554 15.1544C15.4483 14.8615 15.4482 14.3866 15.1552 14.0938L14.0948 15.1546ZM11.4696 12.5304C11.7624 12.8234 12.2373 12.8235 12.5302 12.5306C12.8232 12.2378 12.8233 11.7629 12.5304 11.47L11.4696 12.5304ZM9.90543 8.84396C9.61259 8.55101 9.13772 8.55092 8.84477 8.84376C8.55182 9.1366 8.55173 9.61147 8.84457 9.90442L9.90543 8.84396ZM9.90523 15.1546L12.5302 12.5306L11.4698 11.4698L8.84477 14.0938L9.90523 15.1546ZM12.5305 12.5303L15.1545 9.90432L14.0935 8.84406L11.4695 11.4701L12.5305 12.5303ZM11.4698 12.5306L14.0948 15.1546L15.1552 14.0938L12.5302 11.4698L11.4698 12.5306ZM12.5304 11.47L9.90543 8.84396L8.84457 9.90442L11.4696 12.5304L12.5304 11.47Z" fill="white"/>
</svg>
