<svg width="34" height="34" viewBox="0 0 34 34" fill="none" xmlns="http://www.w3.org/2000/svg">
<path fill-rule="evenodd" clip-rule="evenodd" d="M2.25 17.2496C2.25052 10.0939 7.30569 3.93504 14.324 2.53949C21.3423 1.14395 28.3691 4.90042 31.1071 11.5116C33.845 18.1228 31.5316 25.7474 25.5817 29.7226C19.6317 33.6978 11.7022 32.9163 6.64263 27.8562C3.8298 25.0431 2.24971 21.2278 2.25 17.2496Z" stroke="white" stroke-width="3" stroke-linecap="round" stroke-linejoin="round"/>
<path d="M10.5641 21.8113C9.97816 22.397 9.97798 23.3468 10.5637 23.9326C11.1493 24.5185 12.0991 24.5187 12.685 23.9331L10.5641 21.8113ZM18.3097 18.3105C18.8956 17.7248 18.8958 16.7751 18.3101 16.1892C17.7244 15.6033 16.7747 15.6031 16.1888 16.1888L18.3097 18.3105ZM16.1882 16.1894C15.6026 16.7754 15.603 17.7251 16.189 18.3107C16.775 18.8962 17.7247 18.8959 18.3103 18.3099L16.1882 16.1894ZM23.9329 12.683C24.5184 12.097 24.5181 11.1473 23.9321 10.5617C23.346 9.97614 22.3963 9.9765 21.8107 10.5625L23.9329 12.683ZM18.3097 16.1888C17.7238 15.6031 16.774 15.6033 16.1884 16.1892C15.6027 16.7751 15.6029 17.7248 16.1888 18.3105L18.3097 16.1888ZM21.8135 23.9331C22.3994 24.5187 23.3491 24.5185 23.9348 23.9326C24.5205 23.3468 24.5203 22.397 23.9344 21.8113L21.8135 23.9331ZM16.1884 18.3101C16.774 18.896 17.7238 18.8962 18.3097 18.3105C18.8956 17.7248 18.8958 16.7751 18.3101 16.1892L16.1884 18.3101ZM12.6854 10.5623C12.0997 9.97642 11.15 9.97624 10.5641 10.5619C9.97816 11.1476 9.97797 12.0973 10.5636 12.6832L12.6854 10.5623ZM12.685 23.9331L18.3097 18.3105L16.1888 16.1888L10.5641 21.8113L12.685 23.9331ZM18.3103 18.3099L23.9329 12.683L21.8107 10.5625L16.1882 16.1894L18.3103 18.3099ZM16.1888 18.3105L21.8135 23.9331L23.9344 21.8113L18.3097 16.1888L16.1888 18.3105ZM18.3101 16.1892L12.6854 10.5623L10.5636 12.6832L16.1884 18.3101L18.3101 16.1892Z" fill="white"/>
</svg>
