<svg width="22" height="22" viewBox="0 0 22 22" fill="none" xmlns="http://www.w3.org/2000/svg">
<path fill-rule="evenodd" clip-rule="evenodd" d="M1 10.9998C1.00034 6.22928 4.37046 2.12336 9.04934 1.193C13.7282 0.262634 18.4127 2.76695 20.238 7.17441C22.0634 11.5819 20.5211 16.6649 16.5544 19.3151C12.5878 21.9652 7.30149 21.4442 3.92842 18.0708C2.0532 16.1954 0.999809 13.6519 1 10.9998Z" stroke="white" stroke-width="1.8" stroke-linecap="round" stroke-linejoin="round"/>
<path d="M6.6134 14.1116C6.26186 14.463 6.26175 15.0329 6.61316 15.3844C6.96456 15.7359 7.53441 15.736 7.88595 15.3846L6.6134 14.1116ZM11.6358 11.6363C11.9873 11.2849 11.9874 10.715 11.636 10.3635C11.2846 10.0119 10.7147 10.0118 10.3632 10.3632L11.6358 11.6363ZM10.3629 10.3636C10.0115 10.7152 10.0118 11.2851 10.3634 11.6364C10.715 11.9877 11.2848 11.9875 11.6362 11.6359L10.3629 10.3636ZM15.3845 7.88467C15.7359 7.53306 15.7357 6.96321 15.384 6.61188C15.0324 6.26054 14.4626 6.26076 14.1113 6.61236L15.3845 7.88467ZM11.6358 10.3632C11.2842 10.0118 10.7144 10.0119 10.363 10.3635C10.0116 10.715 10.0117 11.2849 10.3632 11.6363L11.6358 10.3632ZM14.113 15.3846C14.4646 15.736 15.0344 15.7359 15.3858 15.3844C15.7372 15.0329 15.7371 14.463 15.3856 14.1116L14.113 15.3846ZM10.3629 11.636C10.7143 11.9876 11.2842 11.9877 11.6357 11.6363C11.9873 11.2849 11.9874 10.715 11.636 10.3635L10.3629 11.636ZM7.88615 6.61225C7.53475 6.26071 6.9649 6.2606 6.61336 6.612C6.26182 6.96341 6.26171 7.53326 6.61312 7.88479L7.88615 6.61225ZM7.88595 15.3846L11.6358 11.6363L10.3632 10.3632L6.6134 14.1116L7.88595 15.3846ZM11.6362 11.6359L15.3845 7.88467L14.1113 6.61236L10.3629 10.3636L11.6362 11.6359ZM10.3632 11.6363L14.113 15.3846L15.3856 14.1116L11.6358 10.3632L10.3632 11.6363ZM11.636 10.3635L7.88615 6.61225L6.61312 7.88479L10.3629 11.636L11.636 10.3635Z" fill="white"/>
</svg>
