<svg width="50" height="50" viewBox="0 0 50 50" fill="none" xmlns="http://www.w3.org/2000/svg">
<g filter="url(#filter0_d_451_1766)">
<rect x="10" y="10" width="30" height="30" rx="15" fill="#61677A" fill-opacity="0.5"/>
<path fill-rule="evenodd" clip-rule="evenodd" d="M19.247 19.7143C20.072 18.8453 20.3635 18.6015 20.7151 18.4881C20.9584 18.4243 21.2136 18.4208 21.4585 18.4778C21.781 18.5715 21.8663 18.6428 22.9238 19.6965C23.8529 20.6218 23.9457 20.7221 24.0348 20.9031C24.2051 21.2207 24.2317 21.5959 24.1079 21.9343C24.0142 22.1921 23.881 22.3628 23.3176 22.9281L22.9501 23.2965C22.8536 23.3946 22.8309 23.5435 22.8938 23.6659C23.7103 25.0589 24.8688 26.2205 26.2595 27.0409C26.4195 27.1266 26.6167 27.0989 26.747 26.9725L27.1004 26.6246C27.3189 26.4007 27.5502 26.1897 27.7932 25.9928C28.1749 25.7584 28.6505 25.7375 29.0513 25.9375C29.2473 26.0312 29.312 26.0893 30.2701 27.0456C31.2582 28.0309 31.2863 28.0618 31.3951 28.2878C31.5997 28.6618 31.5976 29.1148 31.3895 29.4868C31.2835 29.6968 31.2188 29.7728 30.6629 30.3409C30.3273 30.684 30.0113 30.9971 29.9607 31.0431C29.5021 31.4228 28.9137 31.6091 28.3201 31.5625C27.234 31.4635 26.1828 31.1278 25.2404 30.579C23.1527 29.4729 21.3755 27.8614 20.071 25.8915C19.7869 25.4793 19.5343 25.0462 19.3154 24.5959C18.7281 23.5894 18.4249 22.4424 18.4379 21.2771C18.4827 20.6675 18.7751 20.1028 19.247 19.7143Z" fill="white" stroke="white" stroke-width="1.5" stroke-linecap="round" stroke-linejoin="round"/>
</g>
<defs>
<filter id="filter0_d_451_1766" x="0" y="0" width="50" height="50" filterUnits="userSpaceOnUse" color-interpolation-filters="sRGB">
<feFlood flood-opacity="0" result="BackgroundImageFix"/>
<feColorMatrix in="SourceAlpha" type="matrix" values="0 0 0 0 0 0 0 0 0 0 0 0 0 0 0 0 0 0 127 0" result="hardAlpha"/>
<feOffset/>
<feGaussianBlur stdDeviation="5"/>
<feComposite in2="hardAlpha" operator="out"/>
<feColorMatrix type="matrix" values="0 0 0 0 0 0 0 0 0 0 0 0 0 0 0 0 0 0 0.1 0"/>
<feBlend mode="normal" in2="BackgroundImageFix" result="effect1_dropShadow_451_1766"/>
<feBlend mode="normal" in="SourceGraphic" in2="effect1_dropShadow_451_1766" result="shape"/>
</filter>
</defs>
</svg>
