<svg width="81" height="30" viewBox="0 0 81 30" fill="none" xmlns="http://www.w3.org/2000/svg">
<rect width="81" height="30" rx="15" fill="#FD841F"/>
<path d="M23.2912 20.165C22.8112 20.165 22.3062 20.11 21.7762 20C21.2462 19.89 20.7562 19.72 20.3062 19.49C20.0362 19.35 19.8462 19.17 19.7362 18.95C19.6362 18.72 19.6012 18.49 19.6312 18.26C19.6712 18.03 19.7612 17.825 19.9012 17.645C20.0512 17.465 20.2362 17.35 20.4562 17.3C20.6862 17.24 20.9362 17.28 21.2062 17.42C21.5362 17.58 21.8762 17.7 22.2262 17.78C22.5862 17.86 22.9212 17.9 23.2312 17.9C23.5712 17.9 23.8612 17.85 24.1012 17.75C24.3412 17.65 24.5212 17.505 24.6412 17.315C24.7712 17.125 24.8362 16.9 24.8362 16.64C24.8362 16.24 24.7012 15.925 24.4312 15.695C24.1612 15.465 23.8012 15.35 23.3512 15.35C23.1512 15.35 22.9312 15.38 22.6912 15.44C22.4612 15.5 22.2212 15.615 21.9712 15.785C21.8612 15.845 21.7112 15.915 21.5212 15.995C21.3312 16.065 21.1362 16.1 20.9362 16.1C20.5762 16.1 20.3112 16.015 20.1412 15.845C19.9712 15.675 19.8862 15.435 19.8862 15.125V10.595C19.8862 10.215 19.9862 9.925 20.1862 9.725C20.3962 9.525 20.6862 9.425 21.0562 9.425H25.7662C26.1362 9.425 26.4212 9.52 26.6212 9.71C26.8212 9.9 26.9212 10.18 26.9212 10.55C26.9212 10.91 26.8212 11.185 26.6212 11.375C26.4212 11.565 26.1362 11.66 25.7662 11.66H22.4812V14.015H21.8512C22.0912 13.735 22.4062 13.525 22.7962 13.385C23.1862 13.235 23.6112 13.16 24.0712 13.16C24.7412 13.16 25.3312 13.305 25.8412 13.595C26.3512 13.875 26.7462 14.27 27.0262 14.78C27.3162 15.29 27.4612 15.885 27.4612 16.565C27.4612 17.285 27.2912 17.92 26.9512 18.47C26.6212 19.01 26.1412 19.43 25.5112 19.73C24.8912 20.02 24.1512 20.165 23.2912 20.165ZM30.7854 22.835C30.4754 22.835 30.2254 22.755 30.0354 22.595C29.8454 22.435 29.7254 22.225 29.6754 21.965C29.6354 21.705 29.6804 21.43 29.8104 21.14L30.8154 18.965V20.045L28.2504 14.18C28.1204 13.88 28.0754 13.6 28.1154 13.34C28.1654 13.08 28.3004 12.875 28.5204 12.725C28.7404 12.565 29.0404 12.485 29.4204 12.485C29.7404 12.485 29.9954 12.56 30.1854 12.71C30.3854 12.85 30.5654 13.13 30.7254 13.55L32.2254 17.45H31.7154L33.3054 13.535C33.4654 13.125 33.6454 12.85 33.8454 12.71C34.0554 12.56 34.3354 12.485 34.6854 12.485C34.9854 12.485 35.2254 12.565 35.4054 12.725C35.5854 12.875 35.6954 13.08 35.7354 13.34C35.7754 13.6 35.7304 13.88 35.6004 14.18L32.1954 21.83C32.0154 22.23 31.8154 22.495 31.5954 22.625C31.3854 22.765 31.1154 22.835 30.7854 22.835ZM38.1206 20.135C37.6806 20.135 37.3406 20.02 37.1006 19.79C36.8706 19.56 36.7556 19.225 36.7556 18.785V13.82C36.7556 13.39 36.8656 13.06 37.0856 12.83C37.3156 12.6 37.6406 12.485 38.0606 12.485C38.4806 12.485 38.8006 12.6 39.0206 12.83C39.2406 13.06 39.3506 13.39 39.3506 13.82V14.435H39.2006C39.3006 13.835 39.5556 13.36 39.9656 13.01C40.3856 12.66 40.9056 12.475 41.5256 12.455C41.8156 12.445 42.0306 12.52 42.1706 12.68C42.3206 12.83 42.4006 13.115 42.4106 13.535C42.4106 13.895 42.3356 14.18 42.1856 14.39C42.0356 14.6 41.7506 14.725 41.3306 14.765L40.9856 14.795C40.4556 14.845 40.0706 14.995 39.8306 15.245C39.5906 15.485 39.4706 15.845 39.4706 16.325V18.785C39.4706 19.225 39.3556 19.56 39.1256 19.79C38.8956 20.02 38.5606 20.135 38.1206 20.135ZM46.1263 20.165C45.6863 20.165 45.2363 20.13 44.7763 20.06C44.3263 20 43.9163 19.885 43.5463 19.715C43.2963 19.615 43.1163 19.48 43.0063 19.31C42.9063 19.14 42.8563 18.96 42.8563 18.77C42.8663 18.58 42.9213 18.41 43.0213 18.26C43.1313 18.1 43.2713 17.99 43.4413 17.93C43.6213 17.86 43.8213 17.865 44.0413 17.945C44.4613 18.095 44.8363 18.205 45.1663 18.275C45.5063 18.335 45.8313 18.365 46.1413 18.365C46.5113 18.365 46.7763 18.315 46.9363 18.215C47.0963 18.105 47.1763 17.965 47.1763 17.795C47.1763 17.645 47.1213 17.53 47.0113 17.45C46.9113 17.37 46.7663 17.315 46.5763 17.285L44.9113 17.015C44.2913 16.905 43.8113 16.68 43.4713 16.34C43.1313 15.99 42.9613 15.535 42.9613 14.975C42.9613 14.455 43.1063 14.01 43.3962 13.64C43.6963 13.26 44.1013 12.97 44.6112 12.77C45.1313 12.56 45.7263 12.455 46.3963 12.455C46.8463 12.455 47.2563 12.49 47.6263 12.56C47.9963 12.62 48.3563 12.735 48.7063 12.905C48.9263 12.995 49.0813 13.125 49.1713 13.295C49.2613 13.465 49.2963 13.645 49.2763 13.835C49.2563 14.015 49.1913 14.185 49.0813 14.345C48.9813 14.495 48.8413 14.6 48.6613 14.66C48.4813 14.71 48.2713 14.695 48.0313 14.615C47.7013 14.485 47.4063 14.39 47.1463 14.33C46.8963 14.27 46.6613 14.24 46.4413 14.24C46.0313 14.24 45.7413 14.295 45.5713 14.405C45.4013 14.515 45.3163 14.655 45.3163 14.825C45.3163 14.955 45.3613 15.065 45.4513 15.155C45.5413 15.235 45.6813 15.29 45.8713 15.32L47.5363 15.605C48.1763 15.705 48.6663 15.925 49.0063 16.265C49.3563 16.595 49.5313 17.045 49.5313 17.615C49.5313 18.425 49.2213 19.055 48.6013 19.505C47.9813 19.945 47.1563 20.165 46.1263 20.165ZM58.6396 19.535C58.3396 19.535 58.1096 19.455 57.9496 19.295C57.7896 19.125 57.7096 18.89 57.7096 18.59V16.58H55.7446C55.4546 16.58 55.2296 16.505 55.0696 16.355C54.9196 16.205 54.8446 15.985 54.8446 15.695C54.8446 15.405 54.9196 15.185 55.0696 15.035C55.2296 14.885 55.4546 14.81 55.7446 14.81H57.7096V12.875C57.7096 12.575 57.7896 12.345 57.9496 12.185C58.1096 12.025 58.3446 11.945 58.6546 11.945C58.9546 11.945 59.1796 12.025 59.3296 12.185C59.4896 12.345 59.5696 12.575 59.5696 12.875V14.81H61.5346C61.8246 14.81 62.0446 14.885 62.1946 15.035C62.3546 15.185 62.4346 15.405 62.4346 15.695C62.4346 15.985 62.3546 16.205 62.1946 16.355C62.0446 16.505 61.8246 16.58 61.5346 16.58H59.5696V18.59C59.5696 18.89 59.4896 19.125 59.3296 19.295C59.1796 19.455 58.9496 19.535 58.6396 19.535Z" fill="white"/>
</svg>
