<svg width="61" height="20" viewBox="0 0 61 20" fill="none" xmlns="http://www.w3.org/2000/svg">
<rect width="61" height="20" rx="10" fill="#FD841F"/>
<path d="M16.54 14.132C16.156 14.132 15.752 14.088 15.328 14C14.904 13.912 14.512 13.776 14.152 13.592C13.936 13.48 13.784 13.336 13.696 13.16C13.616 12.976 13.588 12.792 13.612 12.608C13.644 12.424 13.716 12.26 13.828 12.116C13.948 11.972 14.096 11.88 14.272 11.84C14.456 11.792 14.656 11.824 14.872 11.936C15.136 12.064 15.408 12.16 15.688 12.224C15.976 12.288 16.244 12.32 16.492 12.32C16.764 12.32 16.996 12.28 17.188 12.2C17.38 12.12 17.524 12.004 17.62 11.852C17.724 11.7 17.776 11.52 17.776 11.312C17.776 10.992 17.668 10.74 17.452 10.556C17.236 10.372 16.948 10.28 16.588 10.28C16.428 10.28 16.252 10.304 16.06 10.352C15.876 10.4 15.684 10.492 15.484 10.628C15.396 10.676 15.276 10.732 15.124 10.796C14.972 10.852 14.816 10.88 14.656 10.88C14.368 10.88 14.156 10.812 14.02 10.676C13.884 10.54 13.816 10.348 13.816 10.1V6.476C13.816 6.172 13.896 5.94 14.056 5.78C14.224 5.62 14.456 5.54 14.752 5.54H18.52C18.816 5.54 19.044 5.616 19.204 5.768C19.364 5.92 19.444 6.144 19.444 6.44C19.444 6.728 19.364 6.948 19.204 7.1C19.044 7.252 18.816 7.328 18.52 7.328H15.892V9.212H15.388C15.58 8.988 15.832 8.82 16.144 8.708C16.456 8.588 16.796 8.528 17.164 8.528C17.7 8.528 18.172 8.644 18.58 8.876C18.988 9.1 19.304 9.416 19.528 9.824C19.76 10.232 19.876 10.708 19.876 11.252C19.876 11.828 19.74 12.336 19.468 12.776C19.204 13.208 18.82 13.544 18.316 13.784C17.82 14.016 17.228 14.132 16.54 14.132ZM22.5353 16.268C22.2873 16.268 22.0873 16.204 21.9353 16.076C21.7833 15.948 21.6873 15.78 21.6473 15.572C21.6153 15.364 21.6513 15.144 21.7553 14.912L22.5593 13.172V14.036L20.5073 9.344C20.4033 9.104 20.3673 8.88 20.3993 8.672C20.4393 8.464 20.5473 8.3 20.7233 8.18C20.8993 8.052 21.1393 7.988 21.4433 7.988C21.6993 7.988 21.9033 8.048 22.0553 8.168C22.2153 8.28 22.3593 8.504 22.4873 8.84L23.6873 11.96H23.2793L24.5513 8.828C24.6793 8.5 24.8233 8.28 24.9833 8.168C25.1513 8.048 25.3753 7.988 25.6553 7.988C25.8953 7.988 26.0873 8.052 26.2313 8.18C26.3753 8.3 26.4633 8.464 26.4953 8.672C26.5273 8.88 26.4913 9.104 26.3873 9.344L23.6633 15.464C23.5193 15.784 23.3593 15.996 23.1833 16.1C23.0153 16.212 22.7993 16.268 22.5353 16.268ZM28.4035 14.108C28.0515 14.108 27.7795 14.016 27.5875 13.832C27.4035 13.648 27.3115 13.38 27.3115 13.028V9.056C27.3115 8.712 27.3995 8.448 27.5755 8.264C27.7595 8.08 28.0195 7.988 28.3555 7.988C28.6915 7.988 28.9475 8.08 29.1235 8.264C29.2995 8.448 29.3875 8.712 29.3875 9.056V9.548H29.2675C29.3475 9.068 29.5515 8.688 29.8795 8.408C30.2155 8.128 30.6315 7.98 31.1275 7.964C31.3595 7.956 31.5315 8.016 31.6435 8.144C31.7635 8.264 31.8275 8.492 31.8355 8.828C31.8355 9.116 31.7755 9.344 31.6555 9.512C31.5355 9.68 31.3075 9.78 30.9715 9.812L30.6955 9.836C30.2715 9.876 29.9635 9.996 29.7715 10.196C29.5795 10.388 29.4835 10.676 29.4835 11.06V13.028C29.4835 13.38 29.3915 13.648 29.2075 13.832C29.0235 14.016 28.7555 14.108 28.4035 14.108ZM34.808 14.132C34.456 14.132 34.096 14.104 33.728 14.048C33.368 14 33.04 13.908 32.744 13.772C32.544 13.692 32.4 13.584 32.312 13.448C32.232 13.312 32.192 13.168 32.192 13.016C32.2 12.864 32.244 12.728 32.324 12.608C32.412 12.48 32.524 12.392 32.66 12.344C32.804 12.288 32.964 12.292 33.14 12.356C33.476 12.476 33.776 12.564 34.04 12.62C34.312 12.668 34.572 12.692 34.82 12.692C35.116 12.692 35.328 12.652 35.456 12.572C35.584 12.484 35.648 12.372 35.648 12.236C35.648 12.116 35.604 12.024 35.516 11.96C35.436 11.896 35.32 11.852 35.168 11.828L33.836 11.612C33.34 11.524 32.956 11.344 32.684 11.072C32.412 10.792 32.276 10.428 32.276 9.98C32.276 9.564 32.392 9.208 32.624 8.912C32.864 8.608 33.188 8.376 33.596 8.216C34.012 8.048 34.488 7.964 35.024 7.964C35.384 7.964 35.712 7.992 36.008 8.048C36.304 8.096 36.592 8.188 36.872 8.324C37.048 8.396 37.172 8.5 37.244 8.636C37.316 8.772 37.344 8.916 37.328 9.068C37.312 9.212 37.26 9.348 37.172 9.476C37.092 9.596 36.98 9.68 36.836 9.728C36.692 9.768 36.524 9.756 36.332 9.692C36.068 9.588 35.832 9.512 35.624 9.464C35.424 9.416 35.236 9.392 35.06 9.392C34.732 9.392 34.5 9.436 34.364 9.524C34.228 9.612 34.16 9.724 34.16 9.86C34.16 9.964 34.196 10.052 34.268 10.124C34.34 10.188 34.452 10.232 34.604 10.256L35.936 10.484C36.448 10.564 36.84 10.74 37.112 11.012C37.392 11.276 37.532 11.636 37.532 12.092C37.532 12.74 37.284 13.244 36.788 13.604C36.292 13.956 35.632 14.132 34.808 14.132ZM44.8188 13.628C44.5788 13.628 44.3948 13.564 44.2668 13.436C44.1388 13.3 44.0748 13.112 44.0748 12.872V11.264H42.5028C42.2708 11.264 42.0908 11.204 41.9628 11.084C41.8428 10.964 41.7828 10.788 41.7828 10.556C41.7828 10.324 41.8428 10.148 41.9628 10.028C42.0908 9.908 42.2708 9.848 42.5028 9.848H44.0748V8.3C44.0748 8.06 44.1388 7.876 44.2668 7.748C44.3948 7.62 44.5828 7.556 44.8308 7.556C45.0708 7.556 45.2508 7.62 45.3708 7.748C45.4988 7.876 45.5628 8.06 45.5628 8.3V9.848H47.1348C47.3668 9.848 47.5428 9.908 47.6628 10.028C47.7908 10.148 47.8548 10.324 47.8548 10.556C47.8548 10.788 47.7908 10.964 47.6628 11.084C47.5428 11.204 47.3668 11.264 47.1348 11.264H45.5628V12.872C45.5628 13.112 45.4988 13.3 45.3708 13.436C45.2508 13.564 45.0668 13.628 44.8188 13.628Z" fill="white"/>
</svg>
