<svg width="61" height="20" viewBox="0 0 61 20" fill="none" xmlns="http://www.w3.org/2000/svg">
<rect width="61" height="20" rx="10" fill="#E14D2A"/>
<path d="M9.728 14C9.376 14 9.12 13.92 8.96 13.76C8.808 13.592 8.732 13.348 8.732 13.028C8.732 12.804 8.78 12.604 8.876 12.428C8.98 12.252 9.112 12.08 9.272 11.912L11.372 9.716C11.684 9.38 11.904 9.092 12.032 8.852C12.168 8.612 12.236 8.372 12.236 8.132C12.236 7.828 12.136 7.6 11.936 7.448C11.736 7.296 11.448 7.22 11.072 7.22C10.88 7.22 10.676 7.248 10.46 7.304C10.244 7.352 10.012 7.44 9.764 7.568C9.548 7.664 9.352 7.692 9.176 7.652C9.008 7.612 8.864 7.524 8.744 7.388C8.632 7.252 8.56 7.096 8.528 6.92C8.504 6.744 8.532 6.572 8.612 6.404C8.692 6.228 8.836 6.084 9.044 5.972C9.412 5.772 9.792 5.628 10.184 5.54C10.584 5.452 10.984 5.408 11.384 5.408C12.04 5.408 12.588 5.504 13.028 5.696C13.476 5.888 13.816 6.168 14.048 6.536C14.28 6.896 14.396 7.344 14.396 7.88C14.396 8.216 14.344 8.544 14.24 8.864C14.144 9.184 13.984 9.504 13.76 9.824C13.544 10.144 13.252 10.484 12.884 10.844L10.94 12.764V12.212H13.904C14.2 12.212 14.424 12.288 14.576 12.44C14.736 12.592 14.816 12.812 14.816 13.1C14.816 13.388 14.736 13.612 14.576 13.772C14.424 13.924 14.2 14 13.904 14H9.728ZM20.1169 11.612C19.8769 11.612 19.6769 11.532 19.5169 11.372C19.3569 11.212 19.2769 11.012 19.2769 10.772C19.2769 10.532 19.3569 10.336 19.5169 10.184C19.6769 10.024 19.8769 9.944 20.1169 9.944H22.4929C22.7329 9.944 22.9329 10.024 23.0929 10.184C23.2529 10.336 23.3329 10.532 23.3329 10.772C23.3329 11.012 23.2529 11.212 23.0929 11.372C22.9329 11.532 22.7329 11.612 22.4929 11.612H20.1169ZM30.9463 14.132C30.5623 14.132 30.1583 14.088 29.7343 14C29.3103 13.912 28.9183 13.776 28.5583 13.592C28.3423 13.48 28.1903 13.336 28.1023 13.16C28.0223 12.976 27.9943 12.792 28.0183 12.608C28.0503 12.424 28.1223 12.26 28.2343 12.116C28.3543 11.972 28.5023 11.88 28.6783 11.84C28.8623 11.792 29.0623 11.824 29.2783 11.936C29.5423 12.064 29.8143 12.16 30.0943 12.224C30.3823 12.288 30.6503 12.32 30.8983 12.32C31.1703 12.32 31.4023 12.28 31.5943 12.2C31.7863 12.12 31.9303 12.004 32.0263 11.852C32.1303 11.7 32.1823 11.52 32.1823 11.312C32.1823 10.992 32.0743 10.74 31.8583 10.556C31.6423 10.372 31.3543 10.28 30.9943 10.28C30.8343 10.28 30.6583 10.304 30.4663 10.352C30.2823 10.4 30.0903 10.492 29.8903 10.628C29.8023 10.676 29.6823 10.732 29.5303 10.796C29.3783 10.852 29.2223 10.88 29.0623 10.88C28.7743 10.88 28.5623 10.812 28.4263 10.676C28.2903 10.54 28.2223 10.348 28.2223 10.1V6.476C28.2223 6.172 28.3023 5.94 28.4623 5.78C28.6303 5.62 28.8623 5.54 29.1583 5.54H32.9263C33.2223 5.54 33.4503 5.616 33.6103 5.768C33.7703 5.92 33.8503 6.144 33.8503 6.44C33.8503 6.728 33.7703 6.948 33.6103 7.1C33.4503 7.252 33.2223 7.328 32.9263 7.328H30.2983V9.212H29.7943C29.9863 8.988 30.2383 8.82 30.5503 8.708C30.8623 8.588 31.2023 8.528 31.5703 8.528C32.1063 8.528 32.5783 8.644 32.9863 8.876C33.3943 9.1 33.7103 9.416 33.9343 9.824C34.1663 10.232 34.2823 10.708 34.2823 11.252C34.2823 11.828 34.1463 12.336 33.8743 12.776C33.6103 13.208 33.2263 13.544 32.7223 13.784C32.2263 14.016 31.6343 14.132 30.9463 14.132ZM36.9416 16.268C36.6936 16.268 36.4936 16.204 36.3416 16.076C36.1896 15.948 36.0936 15.78 36.0536 15.572C36.0216 15.364 36.0576 15.144 36.1616 14.912L36.9656 13.172V14.036L34.9136 9.344C34.8096 9.104 34.7736 8.88 34.8056 8.672C34.8456 8.464 34.9536 8.3 35.1296 8.18C35.3056 8.052 35.5456 7.988 35.8496 7.988C36.1056 7.988 36.3096 8.048 36.4616 8.168C36.6216 8.28 36.7656 8.504 36.8936 8.84L38.0936 11.96H37.6856L38.9576 8.828C39.0856 8.5 39.2296 8.28 39.3896 8.168C39.5576 8.048 39.7816 7.988 40.0616 7.988C40.3016 7.988 40.4936 8.052 40.6376 8.18C40.7816 8.3 40.8696 8.464 40.9016 8.672C40.9336 8.88 40.8976 9.104 40.7936 9.344L38.0696 15.464C37.9256 15.784 37.7656 15.996 37.5896 16.1C37.4216 16.212 37.2056 16.268 36.9416 16.268ZM42.8098 14.108C42.4578 14.108 42.1858 14.016 41.9938 13.832C41.8098 13.648 41.7178 13.38 41.7178 13.028V9.056C41.7178 8.712 41.8058 8.448 41.9818 8.264C42.1658 8.08 42.4258 7.988 42.7618 7.988C43.0978 7.988 43.3538 8.08 43.5298 8.264C43.7058 8.448 43.7938 8.712 43.7938 9.056V9.548H43.6738C43.7538 9.068 43.9578 8.688 44.2858 8.408C44.6218 8.128 45.0378 7.98 45.5338 7.964C45.7658 7.956 45.9378 8.016 46.0498 8.144C46.1698 8.264 46.2338 8.492 46.2418 8.828C46.2418 9.116 46.1818 9.344 46.0618 9.512C45.9418 9.68 45.7138 9.78 45.3778 9.812L45.1018 9.836C44.6778 9.876 44.3698 9.996 44.1777 10.196C43.9858 10.388 43.8898 10.676 43.8898 11.06V13.028C43.8898 13.38 43.7978 13.648 43.6138 13.832C43.4298 14.016 43.1618 14.108 42.8098 14.108ZM49.2143 14.132C48.8623 14.132 48.5023 14.104 48.1343 14.048C47.7743 14 47.4463 13.908 47.1503 13.772C46.9503 13.692 46.8063 13.584 46.7183 13.448C46.6383 13.312 46.5983 13.168 46.5983 13.016C46.6063 12.864 46.6503 12.728 46.7303 12.608C46.8183 12.48 46.9303 12.392 47.0663 12.344C47.2103 12.288 47.3703 12.292 47.5463 12.356C47.8823 12.476 48.1823 12.564 48.4463 12.62C48.7183 12.668 48.9783 12.692 49.2263 12.692C49.5223 12.692 49.7343 12.652 49.8623 12.572C49.9903 12.484 50.0543 12.372 50.0543 12.236C50.0543 12.116 50.0103 12.024 49.9223 11.96C49.8423 11.896 49.7263 11.852 49.5743 11.828L48.2423 11.612C47.7463 11.524 47.3623 11.344 47.0903 11.072C46.8183 10.792 46.6823 10.428 46.6823 9.98C46.6823 9.564 46.7983 9.208 47.0303 8.912C47.2703 8.608 47.5943 8.376 48.0023 8.216C48.4183 8.048 48.8943 7.964 49.4303 7.964C49.7903 7.964 50.1183 7.992 50.4143 8.048C50.7103 8.096 50.9983 8.188 51.2783 8.324C51.4543 8.396 51.5783 8.5 51.6503 8.636C51.7223 8.772 51.7503 8.916 51.7343 9.068C51.7183 9.212 51.6663 9.348 51.5783 9.476C51.4983 9.596 51.3863 9.68 51.2423 9.728C51.0983 9.768 50.9303 9.756 50.7383 9.692C50.4743 9.588 50.2383 9.512 50.0303 9.464C49.8303 9.416 49.6423 9.392 49.4663 9.392C49.1383 9.392 48.9063 9.436 48.7703 9.524C48.6343 9.612 48.5663 9.724 48.5663 9.86C48.5663 9.964 48.6023 10.052 48.6743 10.124C48.7463 10.188 48.8583 10.232 49.0103 10.256L50.3423 10.484C50.8543 10.564 51.2463 10.74 51.5183 11.012C51.7983 11.276 51.9383 11.636 51.9383 12.092C51.9383 12.74 51.6903 13.244 51.1943 13.604C50.6983 13.956 50.0383 14.132 49.2143 14.132Z" fill="white"/>
</svg>
