<svg width="81" height="30" viewBox="0 0 81 30" fill="none" xmlns="http://www.w3.org/2000/svg">
<rect width="81" height="30" rx="15" fill="#E14D2A"/>
<path d="M19.3324 20C18.8924 20 18.5724 19.9 18.3724 19.7C18.1824 19.49 18.0874 19.185 18.0874 18.785C18.0874 18.505 18.1474 18.255 18.2674 18.035C18.3974 17.815 18.5624 17.6 18.7624 17.39L21.3874 14.645C21.7774 14.225 22.0524 13.865 22.2124 13.565C22.3824 13.265 22.4674 12.965 22.4674 12.665C22.4674 12.285 22.3424 12 22.0924 11.81C21.8424 11.62 21.4824 11.525 21.0124 11.525C20.7724 11.525 20.5174 11.56 20.2474 11.63C19.9774 11.69 19.6874 11.8 19.3774 11.96C19.1074 12.08 18.8624 12.115 18.6424 12.065C18.4324 12.015 18.2524 11.905 18.1024 11.735C17.9624 11.565 17.8724 11.37 17.8324 11.15C17.8024 10.93 17.8374 10.715 17.9374 10.505C18.0374 10.285 18.2174 10.105 18.4774 9.965C18.9374 9.715 19.4124 9.535 19.9024 9.425C20.4024 9.315 20.9024 9.26 21.4024 9.26C22.2224 9.26 22.9074 9.38 23.4574 9.62C24.0174 9.86 24.4424 10.21 24.7324 10.67C25.0224 11.12 25.1674 11.68 25.1674 12.35C25.1674 12.77 25.1024 13.18 24.9724 13.58C24.8524 13.98 24.6524 14.38 24.3724 14.78C24.1024 15.18 23.7374 15.605 23.2774 16.055L20.8474 18.455V17.765H24.5524C24.9224 17.765 25.2024 17.86 25.3924 18.05C25.5924 18.24 25.6924 18.515 25.6924 18.875C25.6924 19.235 25.5924 19.515 25.3924 19.715C25.2024 19.905 24.9224 20 24.5524 20H19.3324ZM28.0265 17.015C27.7265 17.015 27.4765 16.915 27.2765 16.715C27.0765 16.515 26.9765 16.265 26.9765 15.965C26.9765 15.665 27.0765 15.42 27.2765 15.23C27.4765 15.03 27.7265 14.93 28.0265 14.93H30.9965C31.2965 14.93 31.5465 15.03 31.7465 15.23C31.9465 15.42 32.0465 15.665 32.0465 15.965C32.0465 16.265 31.9465 16.515 31.7465 16.715C31.5465 16.915 31.2965 17.015 30.9965 17.015H28.0265ZM37.2712 20.165C36.7912 20.165 36.2862 20.11 35.7562 20C35.2262 19.89 34.7362 19.72 34.2862 19.49C34.0162 19.35 33.8262 19.17 33.7162 18.95C33.6162 18.72 33.5812 18.49 33.6112 18.26C33.6512 18.03 33.7412 17.825 33.8812 17.645C34.0312 17.465 34.2162 17.35 34.4362 17.3C34.6662 17.24 34.9162 17.28 35.1862 17.42C35.5162 17.58 35.8562 17.7 36.2062 17.78C36.5662 17.86 36.9012 17.9 37.2112 17.9C37.5512 17.9 37.8412 17.85 38.0812 17.75C38.3212 17.65 38.5012 17.505 38.6212 17.315C38.7512 17.125 38.8162 16.9 38.8162 16.64C38.8162 16.24 38.6812 15.925 38.4112 15.695C38.1412 15.465 37.7812 15.35 37.3312 15.35C37.1312 15.35 36.9112 15.38 36.6712 15.44C36.4412 15.5 36.2012 15.615 35.9512 15.785C35.8412 15.845 35.6912 15.915 35.5012 15.995C35.3112 16.065 35.1162 16.1 34.9162 16.1C34.5562 16.1 34.2912 16.015 34.1212 15.845C33.9512 15.675 33.8662 15.435 33.8662 15.125V10.595C33.8662 10.215 33.9662 9.925 34.1662 9.725C34.3762 9.525 34.6662 9.425 35.0362 9.425H39.7462C40.1162 9.425 40.4012 9.52 40.6012 9.71C40.8012 9.9 40.9012 10.18 40.9012 10.55C40.9012 10.91 40.8012 11.185 40.6012 11.375C40.4012 11.565 40.1162 11.66 39.7462 11.66H36.4612V14.015H35.8312C36.0712 13.735 36.3862 13.525 36.7762 13.385C37.1662 13.235 37.5912 13.16 38.0512 13.16C38.7212 13.16 39.3112 13.305 39.8212 13.595C40.3312 13.875 40.7262 14.27 41.0062 14.78C41.2962 15.29 41.4412 15.885 41.4412 16.565C41.4412 17.285 41.2712 17.92 40.9312 18.47C40.6012 19.01 40.1212 19.43 39.4912 19.73C38.8712 20.02 38.1312 20.165 37.2712 20.165ZM44.7653 22.835C44.4553 22.835 44.2053 22.755 44.0153 22.595C43.8253 22.435 43.7053 22.225 43.6553 21.965C43.6153 21.705 43.6603 21.43 43.7903 21.14L44.7953 18.965V20.045L42.2303 14.18C42.1003 13.88 42.0553 13.6 42.0953 13.34C42.1453 13.08 42.2803 12.875 42.5003 12.725C42.7203 12.565 43.0203 12.485 43.4003 12.485C43.7203 12.485 43.9753 12.56 44.1653 12.71C44.3653 12.85 44.5453 13.13 44.7053 13.55L46.2053 17.45H45.6953L47.2853 13.535C47.4453 13.125 47.6253 12.85 47.8253 12.71C48.0353 12.56 48.3153 12.485 48.6653 12.485C48.9653 12.485 49.2053 12.565 49.3853 12.725C49.5653 12.875 49.6753 13.08 49.7153 13.34C49.7553 13.6 49.7103 13.88 49.5803 14.18L46.1753 21.83C45.9953 22.23 45.7953 22.495 45.5753 22.625C45.3653 22.765 45.0953 22.835 44.7653 22.835ZM52.1006 20.135C51.6606 20.135 51.3206 20.02 51.0806 19.79C50.8506 19.56 50.7356 19.225 50.7356 18.785V13.82C50.7356 13.39 50.8456 13.06 51.0656 12.83C51.2956 12.6 51.6206 12.485 52.0406 12.485C52.4606 12.485 52.7806 12.6 53.0006 12.83C53.2206 13.06 53.3306 13.39 53.3306 13.82V14.435H53.1806C53.2806 13.835 53.5356 13.36 53.9456 13.01C54.3656 12.66 54.8856 12.475 55.5056 12.455C55.7956 12.445 56.0106 12.52 56.1506 12.68C56.3006 12.83 56.3806 13.115 56.3906 13.535C56.3906 13.895 56.3156 14.18 56.1656 14.39C56.0156 14.6 55.7306 14.725 55.3106 14.765L54.9656 14.795C54.4356 14.845 54.0506 14.995 53.8106 15.245C53.5706 15.485 53.4506 15.845 53.4506 16.325V18.785C53.4506 19.225 53.3356 19.56 53.1056 19.79C52.8756 20.02 52.5406 20.135 52.1006 20.135ZM60.1062 20.165C59.6662 20.165 59.2162 20.13 58.7562 20.06C58.3062 20 57.8962 19.885 57.5262 19.715C57.2762 19.615 57.0962 19.48 56.9862 19.31C56.8862 19.14 56.8362 18.96 56.8362 18.77C56.8462 18.58 56.9012 18.41 57.0012 18.26C57.1112 18.1 57.2512 17.99 57.4212 17.93C57.6012 17.86 57.8012 17.865 58.0212 17.945C58.4412 18.095 58.8162 18.205 59.1462 18.275C59.4862 18.335 59.8112 18.365 60.1212 18.365C60.4912 18.365 60.7562 18.315 60.9162 18.215C61.0762 18.105 61.1562 17.965 61.1562 17.795C61.1562 17.645 61.1012 17.53 60.9912 17.45C60.8912 17.37 60.7462 17.315 60.5562 17.285L58.8912 17.015C58.2712 16.905 57.7912 16.68 57.4512 16.34C57.1112 15.99 56.9412 15.535 56.9412 14.975C56.9412 14.455 57.0862 14.01 57.3762 13.64C57.6762 13.26 58.0812 12.97 58.5912 12.77C59.1112 12.56 59.7062 12.455 60.3762 12.455C60.8262 12.455 61.2362 12.49 61.6062 12.56C61.9762 12.62 62.3362 12.735 62.6862 12.905C62.9062 12.995 63.0612 13.125 63.1512 13.295C63.2412 13.465 63.2762 13.645 63.2562 13.835C63.2362 14.015 63.1712 14.185 63.0612 14.345C62.9612 14.495 62.8212 14.6 62.6412 14.66C62.4612 14.71 62.2512 14.695 62.0112 14.615C61.6812 14.485 61.3862 14.39 61.1262 14.33C60.8762 14.27 60.6412 14.24 60.4212 14.24C60.0112 14.24 59.7212 14.295 59.5512 14.405C59.3812 14.515 59.2962 14.655 59.2962 14.825C59.2962 14.955 59.3412 15.065 59.4312 15.155C59.5212 15.235 59.6612 15.29 59.8512 15.32L61.5162 15.605C62.1562 15.705 62.6462 15.925 62.9862 16.265C63.3362 16.595 63.5112 17.045 63.5112 17.615C63.5112 18.425 63.2012 19.055 62.5812 19.505C61.9612 19.945 61.1362 20.165 60.1062 20.165Z" fill="white"/>
</svg>
