<svg width="81" height="30" viewBox="0 0 81 30" fill="none" xmlns="http://www.w3.org/2000/svg">
<rect width="81" height="30" rx="15" fill="#CD104D"/>
<path d="M19.5274 20C19.1574 20 18.8724 19.905 18.6724 19.715C18.4824 19.515 18.3874 19.235 18.3874 18.875C18.3874 18.515 18.4824 18.24 18.6724 18.05C18.8724 17.86 19.1574 17.765 19.5274 17.765H20.8774V11.63H22.1374L19.9624 12.965C19.7024 13.125 19.4574 13.19 19.2274 13.16C18.9974 13.12 18.8024 13.02 18.6424 12.86C18.4824 12.7 18.3774 12.505 18.3274 12.275C18.2774 12.045 18.2974 11.815 18.3874 11.585C18.4774 11.355 18.6574 11.16 18.9274 11L20.9974 9.71C21.2174 9.57 21.4424 9.465 21.6724 9.395C21.9124 9.325 22.1624 9.29 22.4224 9.29C22.8024 9.29 23.0974 9.39 23.3074 9.59C23.5174 9.78 23.6224 10.06 23.6224 10.43V17.765H24.8224C25.1924 17.765 25.4724 17.86 25.6624 18.05C25.8624 18.24 25.9624 18.515 25.9624 18.875C25.9624 19.235 25.8624 19.515 25.6624 19.715C25.4724 19.905 25.1924 20 24.8224 20H19.5274ZM28.0265 17.015C27.7265 17.015 27.4765 16.915 27.2765 16.715C27.0765 16.515 26.9765 16.265 26.9765 15.965C26.9765 15.665 27.0765 15.42 27.2765 15.23C27.4765 15.03 27.7265 14.93 28.0265 14.93H30.9965C31.2965 14.93 31.5465 15.03 31.7465 15.23C31.9465 15.42 32.0465 15.665 32.0465 15.965C32.0465 16.265 31.9465 16.515 31.7465 16.715C31.5465 16.915 31.2965 17.015 30.9965 17.015H28.0265ZM35.0062 20C34.5662 20 34.2462 19.9 34.0462 19.7C33.8562 19.49 33.7612 19.185 33.7612 18.785C33.7612 18.505 33.8212 18.255 33.9412 18.035C34.0712 17.815 34.2362 17.6 34.4362 17.39L37.0612 14.645C37.4512 14.225 37.7262 13.865 37.8862 13.565C38.0562 13.265 38.1412 12.965 38.1412 12.665C38.1412 12.285 38.0162 12 37.7662 11.81C37.5162 11.62 37.1562 11.525 36.6862 11.525C36.4462 11.525 36.1912 11.56 35.9212 11.63C35.6512 11.69 35.3612 11.8 35.0512 11.96C34.7812 12.08 34.5362 12.115 34.3162 12.065C34.1062 12.015 33.9262 11.905 33.7762 11.735C33.6362 11.565 33.5462 11.37 33.5062 11.15C33.4762 10.93 33.5112 10.715 33.6112 10.505C33.7112 10.285 33.8912 10.105 34.1512 9.965C34.6112 9.715 35.0862 9.535 35.5762 9.425C36.0762 9.315 36.5762 9.26 37.0762 9.26C37.8962 9.26 38.5812 9.38 39.1312 9.62C39.6912 9.86 40.1162 10.21 40.4062 10.67C40.6962 11.12 40.8412 11.68 40.8412 12.35C40.8412 12.77 40.7762 13.18 40.6462 13.58C40.5262 13.98 40.3262 14.38 40.0462 14.78C39.7762 15.18 39.4112 15.605 38.9512 16.055L36.5212 18.455V17.765H40.2262C40.5962 17.765 40.8762 17.86 41.0662 18.05C41.2662 18.24 41.3662 18.515 41.3662 18.875C41.3662 19.235 41.2662 19.515 41.0662 19.715C40.8762 19.905 40.5962 20 40.2262 20H35.0062ZM44.7653 22.835C44.4553 22.835 44.2053 22.755 44.0153 22.595C43.8253 22.435 43.7053 22.225 43.6553 21.965C43.6153 21.705 43.6603 21.43 43.7903 21.14L44.7953 18.965V20.045L42.2303 14.18C42.1003 13.88 42.0553 13.6 42.0953 13.34C42.1453 13.08 42.2803 12.875 42.5003 12.725C42.7203 12.565 43.0203 12.485 43.4003 12.485C43.7203 12.485 43.9753 12.56 44.1653 12.71C44.3653 12.85 44.5453 13.13 44.7053 13.55L46.2053 17.45H45.6953L47.2853 13.535C47.4453 13.125 47.6253 12.85 47.8253 12.71C48.0353 12.56 48.3153 12.485 48.6653 12.485C48.9653 12.485 49.2053 12.565 49.3853 12.725C49.5653 12.875 49.6753 13.08 49.7153 13.34C49.7553 13.6 49.7103 13.88 49.5803 14.18L46.1753 21.83C45.9953 22.23 45.7953 22.495 45.5753 22.625C45.3653 22.765 45.0953 22.835 44.7653 22.835ZM52.1006 20.135C51.6606 20.135 51.3206 20.02 51.0806 19.79C50.8506 19.56 50.7356 19.225 50.7356 18.785V13.82C50.7356 13.39 50.8456 13.06 51.0656 12.83C51.2956 12.6 51.6206 12.485 52.0406 12.485C52.4606 12.485 52.7806 12.6 53.0006 12.83C53.2206 13.06 53.3306 13.39 53.3306 13.82V14.435H53.1806C53.2806 13.835 53.5356 13.36 53.9456 13.01C54.3656 12.66 54.8856 12.475 55.5056 12.455C55.7956 12.445 56.0106 12.52 56.1506 12.68C56.3006 12.83 56.3806 13.115 56.3906 13.535C56.3906 13.895 56.3156 14.18 56.1656 14.39C56.0156 14.6 55.7306 14.725 55.3106 14.765L54.9656 14.795C54.4356 14.845 54.0506 14.995 53.8106 15.245C53.5706 15.485 53.4506 15.845 53.4506 16.325V18.785C53.4506 19.225 53.3356 19.56 53.1056 19.79C52.8756 20.02 52.5406 20.135 52.1006 20.135ZM60.1062 20.165C59.6662 20.165 59.2162 20.13 58.7562 20.06C58.3062 20 57.8962 19.885 57.5262 19.715C57.2762 19.615 57.0962 19.48 56.9862 19.31C56.8862 19.14 56.8362 18.96 56.8362 18.77C56.8462 18.58 56.9012 18.41 57.0012 18.26C57.1112 18.1 57.2512 17.99 57.4212 17.93C57.6012 17.86 57.8012 17.865 58.0212 17.945C58.4412 18.095 58.8162 18.205 59.1462 18.275C59.4862 18.335 59.8112 18.365 60.1212 18.365C60.4912 18.365 60.7562 18.315 60.9162 18.215C61.0762 18.105 61.1562 17.965 61.1562 17.795C61.1562 17.645 61.1012 17.53 60.9912 17.45C60.8912 17.37 60.7462 17.315 60.5562 17.285L58.8912 17.015C58.2712 16.905 57.7912 16.68 57.4512 16.34C57.1112 15.99 56.9412 15.535 56.9412 14.975C56.9412 14.455 57.0862 14.01 57.3762 13.64C57.6762 13.26 58.0812 12.97 58.5912 12.77C59.1112 12.56 59.7062 12.455 60.3762 12.455C60.8262 12.455 61.2362 12.49 61.6062 12.56C61.9762 12.62 62.3362 12.735 62.6862 12.905C62.9062 12.995 63.0612 13.125 63.1512 13.295C63.2412 13.465 63.2762 13.645 63.2562 13.835C63.2362 14.015 63.1712 14.185 63.0612 14.345C62.9612 14.495 62.8212 14.6 62.6412 14.66C62.4612 14.71 62.2512 14.695 62.0112 14.615C61.6812 14.485 61.3862 14.39 61.1262 14.33C60.8762 14.27 60.6412 14.24 60.4212 14.24C60.0112 14.24 59.7212 14.295 59.5512 14.405C59.3812 14.515 59.2962 14.655 59.2962 14.825C59.2962 14.955 59.3412 15.065 59.4312 15.155C59.5212 15.235 59.6612 15.29 59.8512 15.32L61.5162 15.605C62.1562 15.705 62.6462 15.925 62.9862 16.265C63.3362 16.595 63.5112 17.045 63.5112 17.615C63.5112 18.425 63.2012 19.055 62.5812 19.505C61.9612 19.945 61.1362 20.165 60.1062 20.165Z" fill="white"/>
</svg>
